<svg width="14" height="14" viewBox="0 0 14 14" fill="none" xmlns="http://www.w3.org/2000/svg">
<path id="Vector" d="M13.75 11.35V2.64996V2.6475C13.75 1.80906 13.75 1.38958 13.5867 1.06903C13.4429 0.786788 13.2131 0.5573 12.9308 0.41349C12.61 0.25 12.1902 0.25 11.3501 0.25H2.65015C1.81007 0.25 1.38972 0.25 1.06885 0.41349C0.786605 0.5573 0.5573 0.786788 0.41349 1.06903C0.25 1.3899 0.25 1.80988 0.25 2.64996V11.35C0.25 12.19 0.25 12.6102 0.41349 12.931C0.5573 13.2133 0.786605 13.4427 1.06885 13.5865C1.38972 13.75 1.81007 13.75 2.65015 13.75H11.3501C12.1902 13.75 12.61 13.75 12.9308 13.5865C13.2131 13.4427 13.4429 13.2133 13.5867 12.931C13.75 12.6105 13.75 12.1909 13.75 11.3524V11.35Z" fill="#E2E4E9"/>
</svg>
