<svg width="14" height="14" viewBox="0 0 14 14" fill="none" xmlns="http://www.w3.org/2000/svg">
<g id="Group 1000003563">
<path id="Vector" d="M14 11.5111V2.48885V2.4863C14 1.61681 14 1.18179 13.8306 0.849365C13.6815 0.556669 13.4432 0.318682 13.1505 0.169545C12.8177 0 12.3825 0 11.5113 0H2.48904C1.61785 0 1.18193 0 0.849175 0.169545C0.556479 0.318682 0.318682 0.556669 0.169545 0.849365C0 1.18212 0 1.61766 0 2.48885V11.5111C0 12.3823 0 12.8179 0.169545 13.1507C0.318682 13.4434 0.556479 13.6813 0.849175 13.8304C1.18193 14 1.61785 14 2.48904 14H11.5113C12.3825 14 12.8177 14 13.1505 13.8304C13.4432 13.6813 13.6815 13.4434 13.8306 13.1507C14 12.8183 14 12.3831 14 11.5136V11.5111Z" fill="#1439BB"/>
<path id="Vector_2" d="M9.93929 4.92969L6.25205 9.07784L4.4082 7.00376" stroke="#E2E4E9" stroke-width="1.5" stroke-linecap="round" stroke-linejoin="round"/>
</g>
</svg>
