<svg width="76" height="79" viewBox="0 0 76 79" fill="none" xmlns="http://www.w3.org/2000/svg">
<path d="M55.8069 68.2743C57.5669 68.2743 58.9949 69.7013 58.9949 71.4623C58.9949 73.2163 57.5669 74.6433 55.8069 74.6433C54.0509 74.6433 52.6249 73.2173 52.6249 71.4623C52.6249 69.7013 54.0469 68.2743 55.8069 68.2743ZM55.8069 64.4883C51.9569 64.4883 48.8379 67.6083 48.8379 71.4633C48.8379 75.3113 51.9569 78.4313 55.8069 78.4313C59.6609 78.4313 62.7819 75.3113 62.7819 71.4633C62.7809 67.6083 59.6599 64.4883 55.8069 64.4883Z" fill="#1439BB"/>
<path d="M33.0628 68.2743C34.8228 68.2743 36.2508 69.7013 36.2508 71.4623C36.2508 73.2163 34.8228 74.6433 33.0628 74.6433C31.3068 74.6433 29.8788 73.2173 29.8788 71.4623C29.8788 69.7013 31.3008 68.2743 33.0628 68.2743ZM33.0628 64.4883C29.2128 64.4883 26.0938 67.6083 26.0938 71.4633C26.0938 75.3113 29.2128 78.4313 33.0628 78.4313C36.9108 78.4313 40.0358 75.3113 40.0358 71.4633C40.0348 67.6083 36.9158 64.4883 33.0628 64.4883Z" fill="#1439BB"/>
<path d="M1.95314 0C1.89014 0 1.82214 1.14553e-07 1.76014 0.00500011C-0.120857 0.135 -0.671857 2.64 0.985142 3.547L8.45414 7.776C9.13014 8.156 9.62014 8.786 9.82914 9.53L22.2661 54.025C23.4691 58.317 27.4011 61.312 31.8641 61.312H63.1411C65.6611 61.312 65.6611 57.531 63.1411 57.531H31.8631C29.0821 57.531 26.6601 55.692 25.9101 53.01L25.3121 50.864H58.0821C62.7911 50.864 66.9571 47.776 68.3281 43.266L72.5821 29.266L75.7541 18.823C76.4881 16.412 72.8751 15.307 72.1411 17.719L68.9631 28.172L64.7131 42.167C63.8221 45.1 61.1451 47.083 58.0821 47.083H24.2501L13.4731 8.516C13.0001 6.807 11.8601 5.358 10.3131 4.483L2.84814 0.259C2.57814 0.0979998 2.27014 0.01 1.95314 0Z" fill="#1439BB"/>
<path d="M44.1657 6.69111C52.0817 6.69111 58.4567 13.0721 58.4567 20.9881C58.4567 28.9051 52.0817 35.2801 44.1657 35.2801C36.2497 35.2801 29.8747 28.9051 29.8747 20.9881C29.8747 13.0731 36.2497 6.69111 44.1657 6.69111ZM44.1657 2.91211C34.2067 2.91211 26.0977 11.0301 26.0977 20.9891C26.0977 30.9531 34.2067 39.0621 44.1657 39.0621C54.1287 39.0621 62.2377 30.9531 62.2377 20.9891C62.2377 11.0301 54.1287 2.91211 44.1657 2.91211Z" fill="#1439BB"/>
<path d="M38.1722 13.0927C36.4732 13.0927 35.6352 15.1607 36.8592 16.3437L41.5002 20.9837L36.8592 25.6197C36.0822 26.3547 36.0662 27.5787 36.8222 28.3277C37.5722 29.0817 38.7972 29.0617 39.5312 28.2907L44.1722 23.6557L48.8072 28.2907C49.5412 29.0617 50.7662 29.0817 51.5162 28.3277C52.2662 27.5777 52.2502 26.3537 51.4792 25.6197L46.8442 20.9837L51.4792 16.3437C52.7232 15.1397 51.8332 13.0417 50.1102 13.0927C49.6142 13.1097 49.1512 13.3167 48.8072 13.6717L44.1722 18.3117L39.5312 13.6717C39.1722 13.3017 38.6822 13.0927 38.1722 13.0927Z" fill="#1439BB"/>
</svg>
