<svg width="32" height="29" viewBox="0 0 32 29" fill="none" xmlns="http://www.w3.org/2000/svg">
<path d="M15.3162 0.830257C15.6347 -0.0958812 16.9445 -0.0958805 17.2631 0.830258L20.2098 9.3976C20.3527 9.81319 20.7437 10.0922 21.1832 10.0922L30.5886 10.0922C31.5999 10.0922 32.0049 11.398 31.1711 11.9703L23.6646 17.1225C23.2832 17.3843 23.1232 17.8685 23.2737 18.306L26.1644 26.7105C26.4871 27.6487 25.4264 28.4555 24.6084 27.8941L16.8722 22.5842C16.5212 22.3433 16.0581 22.3433 15.7071 22.5842L7.97087 27.8941C7.15287 28.4555 6.09221 27.6487 6.41489 26.7105L9.30555 18.306C9.45604 17.8685 9.29612 17.3843 8.91465 17.1225L1.40817 11.9703C0.574339 11.398 0.979364 10.0922 1.9907 10.0922L11.3961 10.0922C11.8356 10.0922 12.2266 9.81319 12.3695 9.3976L15.3162 0.830257Z" fill="#1439BB"/>
</svg>
