<svg width="14" height="14" viewBox="0 0 14 14" fill="none" xmlns="http://www.w3.org/2000/svg">
<path d="M5.83374 9.33333H2.91707V12.25M8.16707 4.66667H11.0837V1.75M2.67383 5.25184C3.00089 4.44233 3.5485 3.7408 4.25439 3.22699C4.96029 2.71318 5.79642 2.40772 6.66728 2.3453C7.53813 2.28287 8.40892 2.46599 9.18088 2.87386C9.95285 3.28173 10.5945 3.898 11.0337 4.65259M11.3273 8.74815C11.0002 9.55767 10.4526 10.2592 9.74675 10.773C9.04085 11.2868 8.20509 11.5923 7.33423 11.6547C6.46337 11.7171 5.59228 11.534 4.82031 11.1261C4.04835 10.7183 3.40639 10.102 2.9672 9.34743" stroke="#1439BB" stroke-linecap="round" stroke-linejoin="round"/>
</svg>
