<svg width="24" height="24" viewBox="0 0 24 24" fill="none" xmlns="http://www.w3.org/2000/svg">
<path d="M17.8 21C17.8 19.0118 15.1137 17.4 11.8 17.4C8.48629 17.4 5.8 19.0118 5.8 21M22.6 17.3999C22.6 15.9236 21.1191 14.6549 19 14.0994M1 17.3999C1 15.9236 2.48091 14.6549 4.6 14.0994M19 9.28333C19.7365 8.62414 20.2 7.6662 20.2 6.6C20.2 4.61177 18.5882 3 16.6 3C15.678 3 14.8369 3.34662 14.2 3.91667M4.6 9.28333C3.8635 8.62414 3.4 7.6662 3.4 6.6C3.4 4.61177 5.01177 3 7 3C7.92203 3 8.76309 3.34662 9.4 3.91667M11.8 13.8C9.81178 13.8 8.2 12.1882 8.2 10.2C8.2 8.21177 9.81178 6.6 11.8 6.6C13.7882 6.6 15.4 8.21177 15.4 10.2C15.4 12.1882 13.7882 13.8 11.8 13.8Z" stroke="#030303" stroke-width="1.5" stroke-linecap="round" stroke-linejoin="round"/>
</svg>
