<svg width="24" height="24" viewBox="0 0 24 24" fill="none" xmlns="http://www.w3.org/2000/svg">
<path d="M2.00195 2H3.30812C3.55414 2 3.67714 2 3.77614 2.04524C3.86337 2.08511 3.9373 2.14922 3.9891 2.22995C4.04789 2.32154 4.06528 2.44332 4.10008 2.68686L4.57338 6M4.57338 6L5.62527 13.7314C5.75876 14.7125 5.8255 15.2031 6.06005 15.5723C6.26673 15.8977 6.56304 16.1564 6.91331 16.3174C7.31082 16.5 7.8059 16.5 8.79606 16.5H17.3539C18.2965 16.5 18.7678 16.5 19.1529 16.3304C19.4925 16.1809 19.7838 15.9398 19.9942 15.6342C20.2329 15.2876 20.3211 14.8247 20.4974 13.8988L21.8211 6.94969C21.8831 6.62381 21.9142 6.46087 21.8692 6.3335C21.8297 6.22177 21.7519 6.12768 21.6495 6.06802C21.5328 6 21.3669 6 21.0352 6H4.57338ZM10.002 21C10.002 21.5523 9.55424 22 9.00195 22C8.44967 22 8.00195 21.5523 8.00195 21C8.00195 20.4477 8.44967 20 9.00195 20C9.55424 20 10.002 20.4477 10.002 21ZM18.002 21C18.002 21.5523 17.5542 22 17.002 22C16.4497 22 16.002 21.5523 16.002 21C16.002 20.4477 16.4497 20 17.002 20C17.5542 20 18.002 20.4477 18.002 21Z" stroke="#030303" stroke-width="1.2" stroke-linecap="round" stroke-linejoin="round"/>
</svg>
