<svg width="24" height="24" viewBox="0 0 24 24" fill="none" xmlns="http://www.w3.org/2000/svg">
    <g id="eye">
        <g id="Icon">
            <path
                d="M6.16083 12.6928C6.07782 12.5542 6.03632 12.4849 6.01309 12.378C5.99564 12.2977 5.99564 12.1711 6.01309 12.0908C6.03632 11.9838 6.07782 11.9145 6.16083 11.7759C6.84676 10.6303 8.88851 7.73438 12 7.73438C15.1115 7.73438 17.1532 10.6303 17.8392 11.7759C17.9222 11.9145 17.9637 11.9838 17.9869 12.0908C18.0044 12.1711 18.0044 12.2977 17.9869 12.378C17.9637 12.4849 17.9222 12.5542 17.8392 12.6928C17.1532 13.8384 15.1115 16.7344 12 16.7344C8.88851 16.7344 6.84676 13.8384 6.16083 12.6928Z"
                stroke="#1439BB" stroke-width="1.5" stroke-linecap="round"
                stroke-linejoin="round" />
            <path
                d="M12 14.1629C13.0099 14.1629 13.8285 13.2995 13.8285 12.2344C13.8285 11.1693 13.0099 10.3058 12 10.3058C10.9901 10.3058 10.1715 11.1693 10.1715 12.2344C10.1715 13.2995 10.9901 14.1629 12 14.1629Z"
                stroke="#1439BB" stroke-width="1.5" stroke-linecap="round"
                stroke-linejoin="round" />
        </g>
    </g>
</svg>
