<svg width="24" height="24" viewBox="0 0 24 24" fill="none" xmlns="http://www.w3.org/2000/svg">
    <path
        d="M6.86468 7L17.1351 17.2704M14.8885 15.1881C14.0202 15.6558 13.0389 15.9866 11.9999 15.9866C9.73356 15.9866 7.74174 14.4126 6.59952 13.2771C6.29802 12.9773 6.14729 12.8275 6.05133 12.5333C5.9829 12.3235 5.98288 11.9467 6.05133 11.737C6.14732 11.4428 6.29836 11.2927 6.60046 10.9924C7.17617 10.4202 7.96755 9.73677 8.90099 9.1996M16.8142 13.8258C17.028 13.6377 17.2237 13.4527 17.3994 13.2781C17.7016 12.9778 17.8525 12.8276 17.9485 12.5335C18.017 12.3237 18.0172 11.9469 17.9488 11.7371C17.8528 11.443 17.702 11.2931 17.4005 10.9933C16.2582 9.8578 14.2662 8.2838 11.9999 8.2838C11.7833 8.2838 11.5691 8.29819 11.358 8.32519M12.8491 13.098C12.6228 13.2978 12.3255 13.419 11.9999 13.419C11.2909 13.419 10.7161 12.8442 10.7161 12.1352C10.7161 11.7889 10.8532 11.4746 11.0761 11.2437"
        stroke="#1439BB" stroke-width="1.5" stroke-linecap="round" stroke-linejoin="round" />
</svg>
