<svg width="24" height="24" viewBox="0 0 24 24" fill="none" xmlns="http://www.w3.org/2000/svg">
<g id="settings-04">
<path id="Icon" d="M4.7998 8.4L14.3998 8.4M14.3998 8.4C14.3998 9.72548 15.4743 10.8 16.7998 10.8C18.1253 10.8 19.1998 9.72548 19.1998 8.4C19.1998 7.07452 18.1253 6 16.7998 6C15.4743 6 14.3998 7.07452 14.3998 8.4ZM9.5998 14.8L19.1998 14.8M9.5998 14.8C9.5998 16.1255 8.52529 17.2 7.1998 17.2C5.87432 17.2 4.7998 16.1255 4.7998 14.8C4.7998 13.4745 5.87432 12.4 7.1998 12.4C8.52529 12.4 9.5998 13.4745 9.5998 14.8Z" stroke="#1439BB" stroke-width="1.8" stroke-linecap="round" stroke-linejoin="round"/>
</g>
</svg>
