<svg width="20" height="20" viewBox="0 0 20 20" fill="none" xmlns="http://www.w3.org/2000/svg">
    <g id="Menu / More_Horizontal">
        <g id="Vector">
            <path
                d="M9.99935 5.83594C10.4596 5.83594 10.8327 5.46284 10.8327 5.0026C10.8327 4.54237 10.4596 4.16927 9.99935 4.16927C9.53911 4.16927 9.16602 4.54237 9.16602 5.0026C9.16602 5.46284 9.53911 5.83594 9.99935 5.83594Z"
                fill="#152796" />
            <path
                d="M9.99935 10.8359C10.4596 10.8359 10.8327 10.4628 10.8327 10.0026C10.8327 9.54237 10.4596 9.16927 9.99935 9.16927C9.53911 9.16927 9.16602 9.54237 9.16602 10.0026C9.16602 10.4628 9.53911 10.8359 9.99935 10.8359Z"
                fill="#152796" />
            <path
                d="M9.99935 15.8359C10.4596 15.8359 10.8327 15.4628 10.8327 15.0026C10.8327 14.5424 10.4596 14.1693 9.99935 14.1693C9.53911 14.1693 9.16602 14.5424 9.16602 15.0026C9.16602 15.4628 9.53911 15.8359 9.99935 15.8359Z"
                fill="#152796" />
            <path
                d="M9.99935 5.83594C10.4596 5.83594 10.8327 5.46284 10.8327 5.0026C10.8327 4.54237 10.4596 4.16927 9.99935 4.16927C9.53911 4.16927 9.16602 4.54237 9.16602 5.0026C9.16602 5.46284 9.53911 5.83594 9.99935 5.83594Z"
                stroke="#152796" stroke-linecap="round" stroke-linejoin="round" />
            <path
                d="M9.99935 10.8359C10.4596 10.8359 10.8327 10.4628 10.8327 10.0026C10.8327 9.54237 10.4596 9.16927 9.99935 9.16927C9.53911 9.16927 9.16602 9.54237 9.16602 10.0026C9.16602 10.4628 9.53911 10.8359 9.99935 10.8359Z"
                stroke="#152796" stroke-linecap="round" stroke-linejoin="round" />
            <path
                d="M9.99935 15.8359C10.4596 15.8359 10.8327 15.4628 10.8327 15.0026C10.8327 14.5424 10.4596 14.1693 9.99935 14.1693C9.53911 14.1693 9.16602 14.5424 9.16602 15.0026C9.16602 15.4628 9.53911 15.8359 9.99935 15.8359Z"
                stroke="#152796" stroke-linecap="round" stroke-linejoin="round" />
        </g>
    </g>
</svg>
