<svg width="16" height="18" viewBox="0 0 16 18" fill="none" xmlns="http://www.w3.org/2000/svg">
<path d="M1.67904 11.1548L2.00362 10.8302C2.10835 10.7255 2.16732 10.5835 2.16732 10.4354V7.33333C2.16732 4.11168 4.779 1.50001 8.00065 1.5C11.2223 1.49999 13.834 4.11167 13.834 7.33333V10.4353C13.834 10.5834 13.8928 10.7255 13.9976 10.8302L14.3222 11.1549C14.4216 11.2543 14.4714 11.304 14.511 11.3592C14.5859 11.4634 14.6355 11.5836 14.6563 11.7103C14.6673 11.7773 14.6675 11.8476 14.6675 11.9882C14.6675 12.3095 14.6675 12.4701 14.6238 12.5997C14.5406 12.8463 14.347 13.0398 14.1005 13.1229C13.9709 13.1666 13.81 13.1667 13.4887 13.1667H2.51237C2.19108 13.1667 2.03038 13.1666 1.9008 13.1229C1.65424 13.0398 1.46086 12.8463 1.37769 12.5997C1.33398 12.4701 1.33398 12.3095 1.33398 11.9882C1.33398 11.8476 1.33398 11.7773 1.34498 11.7103C1.36577 11.5836 1.41536 11.4634 1.49023 11.3592C1.52985 11.304 1.57962 11.2542 1.67904 11.1548ZM10.5007 13.1667V14C10.5007 15.3807 9.38136 16.5 8.00065 16.5C6.61994 16.5 5.50065 15.3807 5.50065 14V13.1667H10.5007Z" stroke="#152796" stroke-width="1.5" stroke-linecap="round" stroke-linejoin="round"/>
</svg>
