<svg width="24" height="24" viewBox="0 0 24 24" fill="none" xmlns="http://www.w3.org/2000/svg">
<path d="M5.31825 19.4384C5.92657 18.0052 7.34687 17 9.00195 17H15.002C16.657 17 18.0773 18.0052 18.6857 19.4384M16.002 9.5C16.002 11.7091 14.2111 13.5 12.002 13.5C9.79281 13.5 8.00195 11.7091 8.00195 9.5C8.00195 7.29086 9.79281 5.5 12.002 5.5C14.2111 5.5 16.002 7.29086 16.002 9.5ZM22.002 12C22.002 17.5228 17.5248 22 12.002 22C6.47911 22 2.00195 17.5228 2.00195 12C2.00195 6.47715 6.47911 2 12.002 2C17.5248 2 22.002 6.47715 22.002 12Z" stroke="#030303" stroke-width="1.2" stroke-linecap="round" stroke-linejoin="round"/>
</svg>
