<svg width="20" height="20" viewBox="0 0 20 20" fill="none" xmlns="http://www.w3.org/2000/svg">
<path d="M4.43155 16.2C4.93849 15.0056 6.12207 14.168 7.5013 14.168H12.5013C13.8805 14.168 15.0641 15.0056 15.5711 16.2M13.3346 7.91797C13.3346 9.75892 11.8423 11.2513 10.0013 11.2513C8.16035 11.2513 6.66797 9.75892 6.66797 7.91797C6.66797 6.07702 8.16035 4.58464 10.0013 4.58464C11.8423 4.58464 13.3346 6.07702 13.3346 7.91797ZM18.3346 10.0013C18.3346 14.6037 14.6037 18.3346 10.0013 18.3346C5.39893 18.3346 1.66797 14.6037 1.66797 10.0013C1.66797 5.39893 5.39893 1.66797 10.0013 1.66797C14.6037 1.66797 18.3346 5.39893 18.3346 10.0013Z" stroke="#1439BB" stroke-width="1.2" stroke-linecap="round" stroke-linejoin="round"/>
</svg>
