<svg width="66" height="65" viewBox="0 0 66 65" fill="none" xmlns="http://www.w3.org/2000/svg">
<g opacity="0.414775">
<path d="M40.883 1.92599C40.883 2.98973 40.0225 3.85211 38.961 3.85211C37.8995 3.85211 37.0391 2.98973 37.0391 1.92599C37.0391 0.862313 37.8995 0 38.961 0C40.0225 0 40.883 0.862313 40.883 1.92599Z" fill="#3D53FF"/>
</g>
<g opacity="0.792134">
<path d="M25.7607 6.83846L24.6193 7.49884C24.4127 7.61842 24.1485 7.54743 24.0291 7.34039L21.9681 3.76297C21.8488 3.55593 21.9196 3.29114 22.1262 3.17163L23.2677 2.51118C23.4743 2.39166 23.7385 2.46259 23.8578 2.66964L25.9189 6.24705C26.0382 6.45416 25.9673 6.71888 25.7607 6.83846Z" fill="#DF443D"/>
</g>
<g opacity="0.792134">
<path d="M6.47353 14.1804L6.73026 14.2677C7.02137 14.3666 7.34245 14.3156 7.58885 14.1314L7.80616 13.9689C8.4266 13.5049 9.30875 13.9553 9.29886 14.7311L9.2954 15.0027C9.29143 15.3108 9.43897 15.6011 9.68997 15.779L9.91137 15.9358C10.5435 16.3838 10.3886 17.3636 9.64929 17.5939L9.39036 17.6746C9.09679 17.766 8.86702 17.9964 8.77577 18.2906L8.69523 18.5501C8.46546 19.2909 7.48766 19.4461 7.04064 18.8127L6.88403 18.5909C6.70652 18.3393 6.41685 18.1914 6.1095 18.1954L5.83835 18.1988C5.06426 18.2087 4.61484 17.3248 5.07786 16.703L5.24007 16.4852C5.42394 16.2383 5.47476 15.9166 5.37602 15.6248L5.28894 15.3675C5.04033 14.6327 5.74031 13.9313 6.47353 14.1804Z" fill="#46AC7C"/>
</g>
<g opacity="0.792134">
<path d="M4.87591 27.8539L5.16419 29.1428C5.21639 29.3761 5.06999 29.6077 4.83712 29.6599L0.814917 30.5635C0.582117 30.6157 0.35108 30.469 0.298815 30.2357L0.0105382 28.9468C-0.0416009 28.7135 0.104804 28.482 0.337604 28.4298L4.35987 27.5262C4.59267 27.4739 4.82371 27.6207 4.87591 27.8539Z" fill="#00DAB9"/>
</g>
<g opacity="0.792134">
<path d="M8.98834 44.2385C8.98834 45.3022 8.12786 46.1645 7.06644 46.1645C6.00495 46.1645 5.14453 45.3022 5.14453 44.2385C5.14453 43.1748 6.00495 42.3125 7.06644 42.3125C8.12786 42.3125 8.98834 43.1748 8.98834 44.2385Z" fill="#F9C033"/>
</g>
<g opacity="0.792134">
<path d="M6.47353 53.782L6.73026 53.8693C7.02137 53.9681 7.34245 53.9172 7.58885 53.733L7.80616 53.5704C8.4266 53.1065 9.30875 53.5568 9.29886 54.3326L9.2954 54.6043C9.29143 54.9124 9.43897 55.2026 9.68997 55.3805L9.91137 55.5374C10.5435 55.9854 10.3886 56.9652 9.64929 57.1955L9.39036 57.2762C9.09679 57.3676 8.86702 57.598 8.77577 57.8922L8.69523 58.1516C8.46546 58.8925 7.48766 59.0477 7.04064 58.4143L6.88403 58.1924C6.70652 57.9408 6.41685 57.793 6.1095 57.7969L5.83835 57.8004C5.06426 57.8103 4.61484 56.9264 5.07786 56.3046L5.24007 56.0868C5.42394 55.8399 5.47476 55.5182 5.37602 55.2264L5.28894 54.9691C5.04033 54.2343 5.74031 53.5329 6.47353 53.782Z" fill="#E9EFF4"/>
</g>
<g opacity="0.792134">
<path d="M55.9512 12.3426C55.3688 11.5818 55.5491 10.4487 56.3508 9.8323C57.1524 9.2159 58.2914 9.3346 58.8738 10.0953C58.8749 10.0968 58.8759 10.0982 58.8771 10.0996" stroke="#E9EFF4" stroke-width="1.25933" stroke-linecap="round" stroke-linejoin="round"/>
</g>
<g opacity="0.792134">
<path d="M61.0555 22.8757L61.3123 22.963C61.6034 23.0619 61.9245 23.011 62.1708 22.8267L62.3882 22.6642C63.0087 22.2002 63.8907 22.6506 63.8809 23.4264L63.8774 23.698C63.8735 24.0061 64.0211 24.2964 64.272 24.4743L64.4934 24.6311C65.1255 25.0791 64.9707 26.0589 64.2314 26.2893L63.9724 26.3699C63.6788 26.4613 63.449 26.6917 63.3578 26.9859L63.2772 27.2454C63.0475 27.9862 62.0697 28.1414 61.6227 27.508L61.4662 27.2862C61.2886 27.0346 60.999 26.8867 60.6916 26.8907L60.4204 26.8942C59.6463 26.904 59.1968 26.0201 59.6599 25.3984L59.8221 25.1806C60.0059 24.9337 60.0568 24.6119 59.958 24.3201L59.8709 24.0628C59.6223 23.328 60.3223 22.6266 61.0555 22.8757Z" fill="#FFBB31"/>
</g>
<g opacity="0.792134">
<path d="M62.9277 45.6562C64.2346 45.8287 65.1605 47.1088 64.9787 48.4918C64.797 49.8749 63.5721 50.8711 62.2652 50.6986C62.2627 50.6983 62.2603 50.698 62.2578 50.6977" stroke="#DE3E3E" stroke-width="0.944497" stroke-linecap="round" stroke-linejoin="round"/>
</g>
<g opacity="0.792134">
<path d="M58.8076 61.901L57.6661 62.5614C57.4595 62.6809 57.1953 62.61 57.076 62.4029L55.015 58.8256C54.8957 58.6184 54.9665 58.3537 55.1731 58.2342L56.3145 57.5737C56.5211 57.4541 56.7854 57.5251 56.9046 57.7322L58.9657 61.3096C59.085 61.5166 59.0142 61.7814 58.8076 61.901Z" fill="#00DAB9"/>
</g>
<g opacity="0.792134">
<path d="M21.4027 64.0023C20.6002 62.9543 20.8486 61.3931 21.9531 60.5439C23.0575 59.6947 24.6266 59.8583 25.429 60.9063L25.4336 60.9122" stroke="#3D53FF" stroke-width="1.25933" stroke-linecap="round" stroke-linejoin="round"/>
</g>
<path d="M54.7349 31.983C54.7349 43.5284 45.3953 52.888 33.8743 52.888C22.3533 52.888 13.0137 43.5284 13.0137 31.983C13.0137 20.4375 22.3533 11.0781 33.8743 11.0781C45.3953 11.0781 54.7349 20.4375 54.7349 31.983Z" fill="#169560"/>
<path d="M24.668 32.012L30.7835 38.1405L43.0854 25.8125" stroke="white" stroke-width="3.00857" stroke-linecap="round" stroke-linejoin="round"/>
</svg>
