<svg width="12" height="12" viewBox="0 0 12 12" fill="none" xmlns="http://www.w3.org/2000/svg">
    <path
        d="M7.85355 7.14645C7.65829 6.95118 7.34171 6.95118 7.14645 7.14645C6.95118 7.34171 6.95118 7.65829 7.14645 7.85355L7.85355 7.14645ZM10.1464 10.8536C10.3417 11.0488 10.6583 11.0488 10.8536 10.8536C11.0488 10.6583 11.0488 10.3417 10.8536 10.1464L10.1464 10.8536ZM5 8C3.34315 8 2 6.65685 2 5H1C1 7.20914 2.79086 9 5 9V8ZM2 5C2 3.34315 3.34315 2 5 2V1C2.79086 1 1 2.79086 1 5H2ZM5 2C6.65685 2 8 3.34315 8 5H9C9 2.79086 7.20914 1 5 1V2ZM8 5C8 6.65685 6.65685 8 5 8V9C7.20914 9 9 7.20914 9 5H8ZM7.14645 7.85355L10.1464 10.8536L10.8536 10.1464L7.85355 7.14645L7.14645 7.85355Z"
        fill="#989898" />
</svg>
