<svg width="24" height="24" viewBox="0 0 24 24" fill="none" xmlns="http://www.w3.org/2000/svg">
<path d="M10 13L14 15M14 9L10 11M16 18C14.8954 18 14 17.1046 14 16C14 14.8954 14.8954 14 16 14C17.1046 14 18 14.8954 18 16C18 17.1046 17.1046 18 16 18ZM8 14C6.89543 14 6 13.1046 6 12C6 10.8954 6.89543 10 8 10C9.10457 10 10 10.8954 10 12C10 13.1046 9.10457 14 8 14ZM16 10C14.8954 10 14 9.10457 14 8C14 6.89543 14.8954 6 16 6C17.1046 6 18 6.89543 18 8C18 9.10457 17.1046 10 16 10Z" stroke="#1439BB" stroke-width="1.5" stroke-linecap="round" stroke-linejoin="round"/>
</svg>
