<svg width="14" height="14" viewBox="0 0 14 14" fill="none" xmlns="http://www.w3.org/2000/svg">
<path d="M8.16732 5.70891V10.2459M5.83398 5.70891L5.83398 10.2459M2.33398 3.11632H11.6673M10.5007 3.11632V10.7645C10.5007 11.4905 10.5008 11.8535 10.3736 12.1308C10.2618 12.3747 10.083 12.573 9.86353 12.6972C9.61396 12.8385 9.28749 12.8385 8.6341 12.8385H5.36743C4.71404 12.8385 4.3871 12.8385 4.13753 12.6972C3.91801 12.573 3.73966 12.3747 3.62781 12.1308C3.50065 11.8535 3.50065 11.4905 3.50065 10.7645V3.11632H10.5007ZM9.33398 3.11632H4.66732C4.66732 2.51232 4.66732 2.21031 4.75612 1.97209C4.87453 1.65446 5.1015 1.40212 5.38737 1.27055C5.60177 1.17188 5.87372 1.17188 6.41732 1.17188H7.58398C8.12758 1.17188 8.39938 1.17188 8.61378 1.27055C8.89965 1.40212 9.12671 1.65446 9.24512 1.97209C9.33392 2.21031 9.33398 2.51232 9.33398 3.11632Z" stroke="#1439BB" stroke-linecap="round" stroke-linejoin="round"/>
</svg>
