<svg width="0" height="0" class="hidden">
  <symbol xmlns="http://www.w3.org/2000/svg" viewBox="0 0 16.656 12.376" id="mail">
    <g id="Group_20960" transform="translate(-517.166 -18582.021)">
      <path id="Path_2963" d="M36.57,7.767,28.288,1.614A1.1,1.1,0,0,1,29.34.837H43.8a1.1,1.1,0,0,1,1.052.777Z" transform="translate(488.921 18581.184)" fill="#2880c5"></path>
      <path id="Path_2964" d="M44.937,1.26,37.053,7.12a.743.743,0,0,1-.887,0L28.281,1.26V9.946a1.107,1.107,0,0,0,1.1,1.1H43.836a1.107,1.107,0,0,0,1.1-1.1Z" transform="translate(488.885 18583.35)" fill="#2880c5"></path>
    </g>
  </symbol>
  <symbol xmlns="http://www.w3.org/2000/svg" viewBox="0 0 11.769 12.375" id="phone">
    <path id="Path_2962" d="M8.432,13.276a5.381,5.381,0,0,1-2.344-.942,12.847,12.847,0,0,1-2.2-1.938A31.509,31.509,0,0,1,1.531,7.718,8.181,8.181,0,0,1,.2,5.225,3.938,3.938,0,0,1,.046,3.4,3.233,3.233,0,0,1,1.084,1.587a4.331,4.331,0,0,1,.71-.519.924.924,0,0,1,.5-.143.906.906,0,0,1,.495.161A3.567,3.567,0,0,1,4.317,2.917a.628.628,0,0,1,.06.346.72.72,0,0,1-.131.328c-.179.239-.358.471-.537.71a7.83,7.83,0,0,0-.459.638.581.581,0,0,0,.006.7c.352.489.692,1,1.073,1.473a18.828,18.828,0,0,0,2.3,2.38c.185.161.388.3.584.447a.569.569,0,0,0,.292.113.558.558,0,0,0,.31-.06c.209-.107.417-.221.614-.346.28-.179.549-.358.823-.537a.768.768,0,0,1,.376-.113.733.733,0,0,1,.382.1,3.726,3.726,0,0,1,1.634,1.6,1.03,1.03,0,0,1,.125.578.981.981,0,0,1-.215.549A3.409,3.409,0,0,1,8.825,13.3,2.906,2.906,0,0,1,8.432,13.276Z" transform="translate(0 -0.925)"></path>
  </symbol>
  <symbol xmlns="http://www.w3.org/2000/svg" viewBox="0 0 19.998 20.288" id="order">
    <g id="Group_20980" transform="translate(-44.085 -425.479)">
      <path id="Path_2568" d="M22.256,40.544a3.159,3.159,0,1,1,.151,0c-.05,0-.1,0-.151,0m0-5.272a2.089,2.089,0,1,0,1.407.546h0a2.081,2.081,0,0,0-1.406-.544" transform="translate(30.686 405.223)"></path>
      <path id="Path_2569" d="M26.626,30.829l-.205-.3a3.741,3.741,0,0,0-2-1.449l-.309-.092L22.3,20.751a1.2,1.2,0,0,1,.926-1.432l7.4-1.515a1.206,1.206,0,0,1,1.405.91l2.229,10.051a1.574,1.574,0,0,1-1.094.728Zm-1.581-2.69A4.846,4.846,0,0,1,27.1,29.615l5.848-1.194a.1.1,0,0,0,.078-.121l-.144-.7h0l-1.919-8.651a.1.1,0,0,0-.119-.075l-7.4,1.514a.1.1,0,0,0-.078.12Z" transform="translate(29.821 409.657)"></path>
      <path id="Path_2570" d="M18.7,28.121l-2.63-11.91-4.2.189a.547.547,0,1,1-.05-1.093l4.662-.21a.546.546,0,0,1,.559.428l2.73,12.36a.546.546,0,0,1-.417.652h0a.547.547,0,0,1-.652-.417" transform="translate(32.79 410.383)"></path>
      <path id="Path_2571" d="M28.731,37.209h0a.548.548,0,0,1,.429-.644l4.447-.89a.547.547,0,0,1,.215,1.073l-4.447.89a.548.548,0,0,1-.644-.429" transform="translate(28.078 404.82)"></path>
    </g>
  </symbol>
  <symbol xmlns="http://www.w3.org/2000/svg" viewBox="0 0 16.804 16.803" id="cart">
    <path id="Subtraction_2" d="M12.292-18628H4.9a2.028,2.028,0,0,1-1.951-1.5l-2.667-8.287a2.042,2.042,0,0,1,.323-1.818,2.009,2.009,0,0,1,1.61-.8h2.4v-.389A4,4,0,0,1,8.6-18644.8a4,4,0,0,1,3.982,4.006v.389h2.4a1.991,1.991,0,0,1,1.605.8,2.016,2.016,0,0,1,.346,1.758l-2.7,8.41A1.987,1.987,0,0,1,12.292-18628ZM2.213-18639.42a1.042,1.042,0,0,0-.824.408,1.055,1.055,0,0,0-.164.945l2.667,8.287a1.046,1.046,0,0,0,1.006.795h7.393a1.031,1.031,0,0,0,.987-.734l2.7-8.4,0,0a1.029,1.029,0,0,0-.187-.885,1.024,1.024,0,0,0-.819-.408Zm6.383-4.393a3.012,3.012,0,0,0-3,3.018v.389h5.994v-.389A3.01,3.01,0,0,0,8.6-18643.812Z" transform="translate(-0.196 18644.801)" fill="#808285"></path>
  </symbol>
  <symbol xmlns="http://www.w3.org/2000/svg" viewBox="0 0 18.529 18.529" id="search">
    <path id="noun-search-4828610" d="M118.786,47.853l4.262,4.262a.651.651,0,0,1-.921.921l-4.262-4.262a7.817,7.817,0,1,1,.921-.921ZM112.821,36.3a6.511,6.511,0,1,0,6.511,6.511A6.514,6.514,0,0,0,112.821,36.3Z" transform="translate(-104.859 -34.846)"   stroke-width="0.3" fill-rule="evenodd"></path>
  </symbol>
    <symbol xmlns="http://www.w3.org/2000/svg" viewBox="0 0 19.998 22.908" id="cashback">
    <defs>
      <clipPath id="clip-path">
        <rect id="Rectangle_38389" width="19.998" height="22.908" stroke-width="0.3"></rect>
      </clipPath>
    </defs>
    <g id="Group_21096" transform="translate(0 0)">
      <g id="Group_21095" transform="translate(0 0)" clip-path="url(#clip-path)">
        <path id="Path_3036" d="M10,22.908A10,10,0,0,1,0,12.914,17.471,17.471,0,0,1,2.049,5.363a2.625,2.625,0,0,1,4.184-.65L7.664,1.544a2.625,2.625,0,0,1,4.7-.17l1.188,2.2a2.594,2.594,0,0,1,1.872-.5,2.642,2.642,0,0,1,1.94,1.25,19.647,19.647,0,0,1,1.915,4.3,14.946,14.946,0,0,1,.717,4.3,9.985,9.985,0,0,1-10,10M4.383,5.072a1.342,1.342,0,0,0-.134.006,1.489,1.489,0,0,0-1.2.8,16.3,16.3,0,0,0-1.923,7.032,8.872,8.872,0,1,0,17.743,0A13.8,13.8,0,0,0,18.2,8.949,18.456,18.456,0,0,0,16.4,4.9,1.51,1.51,0,0,0,15.29,4.19a1.473,1.473,0,0,0-1.244.439l-.774.79-1.9-3.509a1.5,1.5,0,0,0-2.683.1l-2.2,4.865L5.57,5.662a1.487,1.487,0,0,0-1.187-.59" transform="translate(0 0)"   stroke-width="0.3"></path>
        <path id="Path_3037" d="M18.323,20.789h0a1.391,1.391,0,1,1-.408-.981A1.392,1.392,0,0,1,18.323,20.789Z" transform="translate(-3.869 -4.829)"   stroke-width="0.3"></path>
        <path id="Path_3038" d="M9.856,13.789h0a1.39,1.39,0,1,1-.407-.981A1.391,1.391,0,0,1,9.856,13.789Z" transform="translate(-1.762 -3.087)"   stroke-width="0.3"></path>
        <path id="Path_3039" d="M10.045,19.566h0a.368.368,0,0,1-.092-.512L14.5,12.511a.368.368,0,0,1,.6.419l-4.544,6.544a.368.368,0,0,1-.512.092" transform="translate(-2.461 -3.075)"   stroke-width="0.5"></path>
      </g>
    </g>
  </symbol>
  <symbol xmlns="http://www.w3.org/2000/svg" viewBox="0 0 19.307 19.576" id="mydistributor">
    <g id="Group_21108" transform="translate(-11.145 -14.946)">
      <path id="Path_3051" d="M22.1,40.226a3,3,0,1,1,.143,0c-.048,0-.1,0-.143,0m0-5.009a1.984,1.984,0,1,0,1.337.519h0a1.978,1.978,0,0,0-1.336-.517" transform="translate(-2.387 -5.854)"   stroke-width="0.3"></path>
      <path id="Path_3052" d="M26.408,30.178l-.195-.282a3.554,3.554,0,0,0-1.9-1.377l-.294-.087L22.3,20.6a1.142,1.142,0,0,1,.88-1.361L30.21,17.8a1.145,1.145,0,0,1,1.335.864l2.118,9.549a1.5,1.5,0,0,1-1.04.692Zm-1.5-2.556a4.6,4.6,0,0,1,1.952,1.4l5.556-1.135a.1.1,0,0,0,.074-.115l-.137-.661h0l-1.823-8.22a.1.1,0,0,0-.113-.071L23.386,20.26a.1.1,0,0,0-.074.114Z" transform="translate(-3.368 -0.824)"   stroke-width="0.3"></path>
      <path id="Path_3053" d="M18.33,27.471l-2.5-11.316-3.993.18a.52.52,0,1,1-.047-1.038l4.429-.2a.518.518,0,0,1,.531.407l2.594,11.744a.519.519,0,0,1-.4.619h0a.52.52,0,0,1-.62-.4"   stroke-width="0.3"></path>
      <path id="Path_3054" d="M28.731,37.132h0a.52.52,0,0,1,.408-.612l4.225-.846a.52.52,0,1,1,.2,1.02l-4.225.846a.52.52,0,0,1-.612-.408" transform="translate(-5.346 -6.311)"   stroke-width="0.3"></path>
    </g>
  </symbol>
  <symbol xmlns="http://www.w3.org/2000/svg" viewBox="0 0 19.301 13.378" id="fulfillment">
    <path id="Union_14" d="M2033.929-1141.263l-2.937-2.937h-2.209a.784.784,0,0,1-.784-.783v-6.333a.785.785,0,0,1,.784-.784h2.209l1.671-1.67a.77.77,0,0,1,.553-.229h1.9a.784.784,0,0,1,.783.784.784.784,0,0,1-.783.783h-1.576l-1.67,1.67a.772.772,0,0,1-.553.229h-1.75v4.767h1.75a.761.761,0,0,1,.3.06.757.757,0,0,1,.255.17l3.166,3.165a1.176,1.176,0,0,0,.73.181h.023a2.755,2.755,0,0,0,1.922-.874.785.785,0,0,1,.665-.24,1.392,1.392,0,0,0,.173.009,4.8,4.8,0,0,0,1.916-.489,1.729,1.729,0,0,0,.984-1.055.533.533,0,0,0-.181-.485L2039-1147.6a.784.784,0,0,1,0-1.107.778.778,0,0,1,.553-.23.78.78,0,0,1,.554.23l2.273,2.273a2.084,2.084,0,0,1,.619,1.842,3.187,3.187,0,0,1-1.83,2.206,6.4,6.4,0,0,1-2.58.653,4.251,4.251,0,0,1-2.774,1.106h-.054A2.589,2.589,0,0,1,2033.929-1141.263Zm10.055-2.937a.784.784,0,0,1-.784-.783.784.784,0,0,1,.784-.784h1.749v-4.766h-1.749a.781.781,0,0,1-.555-.229l-1.67-1.671h-3.784l-2.677,2.676a.483.483,0,0,0-.139.342.489.489,0,0,0,.14.343l.108.106a.487.487,0,0,0,.343.134.487.487,0,0,0,.342-.133l2.27-2.271a.782.782,0,0,1,.555-.23.78.78,0,0,1,.554.23.785.785,0,0,1,0,1.108l-2.271,2.272a2.039,2.039,0,0,1-1.45.6,2.04,2.04,0,0,1-1.45-.6l-.108-.108a2.037,2.037,0,0,1-.6-1.451,2.036,2.036,0,0,1,.6-1.449l2.905-2.9a.776.776,0,0,1,.553-.229h4.433a.775.775,0,0,1,.554.23l1.67,1.669h2.209a.785.785,0,0,1,.783.784v6.333a.784.784,0,0,1-.783.783Z" transform="translate(-2028 1154)" ></path>
  </symbol>
  <symbol xmlns="http://www.w3.org/2000/svg" viewBox="0 0 20.307 20.88" id="delivery">
    <path id="Union_15" d="M2031.242-1133.12a.6.6,0,0,1-.608-.607v-4.712h-2.022a.636.636,0,0,1-.529-.31l-.005-.01a.654.654,0,0,1,0-.625l2.631-4.384a.626.626,0,0,1,.529-.289h14.1a.6.6,0,0,1,.539.328l2.348,4.379a.566.566,0,0,1-.038.617.586.586,0,0,1-.518.293h-1.983v4.712a.6.6,0,0,1-.608.607Zm7.54-1.215h5.7v-4.1h-3.636a.623.623,0,0,1-.529-.291l-1.533-2.509Zm-6.913,0h5.7v-6.973l-1.636,2.585a.618.618,0,0,1-.526.284h-3.536Zm9.325-5.339h5.457l-1.685-3.148h-5.7Zm-11.489,0h5.354l1.991-3.148h-5.457Zm8.194-4.609a.368.368,0,0,1-.108-.26v-.732a3.825,3.825,0,0,1-3.444-3.444h-.743a.376.376,0,0,1-.367-.349.376.376,0,0,1,.349-.383h.76a3.827,3.827,0,0,1,3.444-3.444v-.734a.374.374,0,0,1,.327-.369l.036,0a.373.373,0,0,1,.265.115.361.361,0,0,1,.105.259v.73a3.827,3.827,0,0,1,3.445,3.444h.733a.378.378,0,0,1,.371.367.376.376,0,0,1-.367.365h-.736a3.826,3.826,0,0,1-3.445,3.444v.734a.366.366,0,0,1-.107.257.369.369,0,0,1-.259.112A.365.365,0,0,1,2037.9-1144.282Zm-2.487-4.8a2.748,2.748,0,0,0,2.745,2.744,2.748,2.748,0,0,0,2.746-2.744,2.75,2.75,0,0,0-2.746-2.746A2.749,2.749,0,0,0,2035.412-1149.084Zm1.284,0a1.462,1.462,0,0,1,1.461-1.461,1.462,1.462,0,0,1,1.462,1.461,1.463,1.463,0,0,1-1.462,1.462A1.462,1.462,0,0,1,2036.7-1149.086Zm.883,0a.572.572,0,0,0,.578.579.573.573,0,0,0,.579-.579.573.573,0,0,0-.579-.579A.572.572,0,0,0,2037.579-1149.086Z" transform="translate(-2028 1154)" ></path>
  </symbol>
  <symbol xmlns="http://www.w3.org/2000/svg" viewBox="0 0 20.207 14.074" id="mydelivery">
    <path id="Union_16" d="M2042.848-1141.558h-7.163a2.194,2.194,0,0,1-2.126,1.633,2.194,2.194,0,0,1-2.127-1.633h-.888a.574.574,0,0,1-.574-.573v-4.029a.574.574,0,0,1,.574-.573.574.574,0,0,1,.573.573v3.456h.315a2.193,2.193,0,0,1,2.127-1.632,2.194,2.194,0,0,1,2.126,1.632h6.056v-10.147h-13.168a.574.574,0,0,1-.573-.573.575.575,0,0,1,.415-.552l-.013-.023h13.912a.574.574,0,0,1,.574.573v3.769h2.085a.57.57,0,0,1,.437.2l2.66,3.124a.578.578,0,0,1,.137.372v3.829a.574.574,0,0,1-.573.573h-.534a2.194,2.194,0,0,1-2.126,1.633A2.194,2.194,0,0,1,2042.848-1141.558Zm-10.349-.574a1.061,1.061,0,0,0,1.06,1.06,1.061,1.061,0,0,0,1.058-1.06,1.048,1.048,0,0,0-.31-.748,1.049,1.049,0,0,0-.748-.31A1.06,1.06,0,0,0,2032.5-1142.132Zm11.416,0a1.061,1.061,0,0,0,1.059,1.059,1.06,1.06,0,0,0,1.058-1.059,1.059,1.059,0,0,0-1.058-1.058A1.06,1.06,0,0,0,2043.914-1142.132Zm3.146-.7v-2.912l-2.352-2.762h-1.821v5.674a2.193,2.193,0,0,1,2.086-1.5A2.194,2.194,0,0,1,2047.06-1142.837Zm-13.235-4.593a.559.559,0,0,1-.139-.406.553.553,0,0,1,.189-.384.558.558,0,0,1,.37-.141.558.558,0,0,1,.42.191l1.2,1.365,3.623-3.064a.56.56,0,0,1,.361-.132.559.559,0,0,1,.427.2.561.561,0,0,1-.065.789l-4.463,3.772Zm-4.576-.187a.574.574,0,0,1-.573-.573.574.574,0,0,1,.573-.573h2.677a.574.574,0,0,1,.573.573.574.574,0,0,1-.573.573Zm1.294-2.619a.574.574,0,0,1-.574-.573.574.574,0,0,1,.574-.573h3.015a.574.574,0,0,1,.573.573.574.574,0,0,1-.573.573Z" transform="translate(-2028 1154)" ></path>
  </symbol>
  <symbol xmlns="http://www.w3.org/2000/svg" viewBox="0 0 15.472 15.444" id="feedback">
    <path id="Path_3050" d="M3.927,15.444a1.692,1.692,0,0,1-.278-.024,1.509,1.509,0,0,1-1.195-1.764l.614-3.732L.411,7.159A1.428,1.428,0,0,1,.234,5.377a1.428,1.428,0,0,1,.9-.613l3.717-.552L6.518.863A1.446,1.446,0,0,1,9.18.9l1.514,3.311,3.62.543a1.424,1.424,0,0,1,.75.393,1.388,1.388,0,0,1,.407,1.019,1.444,1.444,0,0,1-.424,1l-2.73,2.7.616,3.74a1.624,1.624,0,0,1-.126.924,1.49,1.49,0,0,1-2.017.705L7.7,13.514,4.623,15.27a1.436,1.436,0,0,1-.7.174m3.91-14.28a.286.286,0,0,0-.106.021.341.341,0,0,0-.166.181L5.62,5.271l-4.28.634a.277.277,0,0,0-.136.11.25.25,0,0,0-.036.194.261.261,0,0,0,.071.136L4.26,9.487l-.008.394L3.6,13.861a.342.342,0,0,0,.261.417.346.346,0,0,0,.2-.022l3.449-1.971h.37l3.457,1.924a.332.332,0,0,0,.42-.163.463.463,0,0,0,.036-.25l-.663-4.142V9.413l3.1-3.068a.29.29,0,0,0,.083-.2.235.235,0,0,0-.067-.176.248.248,0,0,0-.129-.071L9.9,5.269,8.114,1.363a.3.3,0,0,0-.277-.2" transform="translate(0 0)" ></path>
  </symbol>
  <symbol xmlns="http://www.w3.org/2000/svg" viewBox="0 0 17.301 15.599" id="inbox">
    <path id="Union_17" d="M2035.5-1139.034l-1.443-2.27h-3.01a3.049,3.049,0,0,1-3.046-3.046v-6.606a3.049,3.049,0,0,1,3.046-3.045h11.209a3.049,3.049,0,0,1,3.046,3.046v6.605a3.049,3.049,0,0,1-3.046,3.046h-3.05l-1.452,2.284a1.308,1.308,0,0,1-1.123.618A1.324,1.324,0,0,1,2035.5-1139.034Zm-6.211-11.921v6.606a1.761,1.761,0,0,0,1.759,1.759h3.716l1.831,2.881a.046.046,0,0,0,.04.02.047.047,0,0,0,.029-.008l1.838-2.893h3.757a1.761,1.761,0,0,0,1.759-1.759v-6.605a1.761,1.761,0,0,0-1.759-1.76h-11.209A1.761,1.761,0,0,0,2029.287-1150.955Z" transform="translate(-2028 1154)" ></path>
  </symbol>
  <symbol xmlns="http://www.w3.org/2000/svg" viewBox="0 0 19.398 19.398" id="uploadorder">
    <path id="Subtraction_3" d="M2041.516-1134a.564.564,0,0,1-.57-.57.563.563,0,0,1,.57-.569,5.4,5.4,0,0,0,5.342-5.691v-5.738a5.644,5.644,0,0,0-1.674-4.016,5.649,5.649,0,0,0-4.017-1.675h-5.738a5.648,5.648,0,0,0-4.016,1.675,5.645,5.645,0,0,0-1.674,4.016v5.7a5.649,5.649,0,0,0,1.674,4.017,5.647,5.647,0,0,0,4.016,1.674h2.283v-11.735l-3.295,3.294-.011.012a.494.494,0,0,1-.373.161.577.577,0,0,1-.41-.173l-.012-.011a.5.5,0,0,1-.161-.358.58.58,0,0,1,.174-.425l4.242-4.278a.544.544,0,0,1,.414-.155.54.54,0,0,1,.413.155l4.243,4.278.013.011a.494.494,0,0,1,.161.359.58.58,0,0,1-.173.424l-.011.011a.492.492,0,0,1-.373.162.577.577,0,0,1-.41-.173l-3.294-3.295v12.306a.564.564,0,0,1-.57.57h-2.9a6.828,6.828,0,0,1-6.786-6.795v-5.738a6.837,6.837,0,0,1,6.829-6.829h5.738a6.838,6.838,0,0,1,6.83,6.83v5.738A6.591,6.591,0,0,1,2041.516-1134Z" transform="translate(-2028.6 1153.4)" ></path>
  </symbol>
  <symbol xmlns="http://www.w3.org/2000/svg" viewBox="0 0 16.804 16.803" id="cart">
    <path id="Subtraction_2" d="M12.292-18628H4.9a2.028,2.028,0,0,1-1.951-1.5l-2.667-8.287a2.042,2.042,0,0,1,.323-1.818,2.009,2.009,0,0,1,1.61-.8h2.4v-.389A4,4,0,0,1,8.6-18644.8a4,4,0,0,1,3.982,4.006v.389h2.4a1.991,1.991,0,0,1,1.605.8,2.016,2.016,0,0,1,.346,1.758l-2.7,8.41A1.987,1.987,0,0,1,12.292-18628ZM2.213-18639.42a1.042,1.042,0,0,0-.824.408,1.055,1.055,0,0,0-.164.945l2.667,8.287a1.046,1.046,0,0,0,1.006.795h7.393a1.031,1.031,0,0,0,.987-.734l2.7-8.4,0,0a1.029,1.029,0,0,0-.187-.885,1.024,1.024,0,0,0-.819-.408Zm6.383-4.393a3.012,3.012,0,0,0-3,3.018v.389h5.994v-.389A3.01,3.01,0,0,0,8.6-18643.812Z" transform="translate(-0.196 18644.801)" ></path>
  </symbol>
  <symbol xmlns="http://www.w3.org/2000/svg" viewBox="0 0 20.324 21.528" id="rewards">
    <g id="Group_21103" transform="translate(0.15 1.724)">
      <g id="Group_21102" transform="translate(0 -1.57)">
        <path id="Path_3047" d="M24.2,3.816l-3.143-.457L19.646.51a.926.926,0,0,0-1.652,0L16.587,3.359l-3.143.457a.921.921,0,0,0-.527.269.922.922,0,0,0,.018,1.3L15.209,7.6l-.537,3.132a.921.921,0,0,0,.908,1.076.914.914,0,0,0,.428-.107l2.811-1.478,2.813,1.478a.92.92,0,0,0,1.336-.97L22.432,7.6,24.7,5.392A.921.921,0,0,0,24.2,3.816M21.42,7.276l.652,3.6L18.819,9.165l-3.212,1.689.613-3.577L13.58,4.748l3.634-.528L18.8.927,20.427,4.22l3.621.493Z" transform="translate(-4.987 0)" stroke-width="0.3"></path>
        <path id="Path_3048" d="M19.941,18.972a1.738,1.738,0,0,0-1.68-1.3h0a1.7,1.7,0,0,0-.741.168L14.6,19.135a1.761,1.761,0,0,0-1.541-.9H10.927l-.837-.447A4.85,4.85,0,0,0,7.8,17.215H6.3a1.323,1.323,0,0,0-1.288-1.039H1.317A1.323,1.323,0,0,0,0,17.494v4.97a1.329,1.329,0,0,0,1.3,1.318h3.7a1.324,1.324,0,0,0,1.257-.924l3.191,1.057A5.381,5.381,0,0,0,13.5,23.66l5.456-2.668a1.775,1.775,0,0,0,.982-2.02M1.31,22.951a.492.492,0,0,1-.479-.488V17.006H5.5v5.3l-.01.649Zm17.779-3.062a.4.4,0,0,1-.2.213l-5.747,2.811a4.548,4.548,0,0,1-3.425.215L6.325,22V18.045H7.8a4.026,4.026,0,0,1,1.9.475l1.02.544H13.5a.375.375,0,0,1,.365.288l.022.095-1.457.635H11.428a.415.415,0,0,0,0,.831h1.179l1.48-.645v0l.427-.189.027-.012L17.868,18.6a.888.888,0,0,1,.39-.09h0a.957.957,0,0,1,.83,1.383" transform="translate(0 -2.97)" stroke-width="0.3"></path>
      </g>
    </g>
  </symbol>
  <symbol xmlns="http://www.w3.org/2000/svg" viewBox="0 0 16.611 18.812" id="purchasereturn">
    <path id="Union_12" d="M2043.41-1135.788V-1152.8H2029.2v17.011a.6.6,0,0,1-.6.6.6.6,0,0,1-.6-.6V-1153.4a.6.6,0,0,1,.6-.6h15.41a.6.6,0,0,1,.6.6v17.611a.6.6,0,0,1-.6.6A.6.6,0,0,1,2043.41-1135.788Zm-11.508.6a.6.6,0,0,1-.6-.6.6.6,0,0,1,.6-.6h4.4a.6.6,0,0,1,.6.6.6.6,0,0,1-.6.6Zm0-3.028a.6.6,0,0,1-.6-.6.6.6,0,0,1,.6-.6h8.806a.6.6,0,0,1,.6.6.6.6,0,0,1-.6.6Zm0-3.027a.6.6,0,0,1-.6-.6.6.6,0,0,1,.6-.6h8.806a.6.6,0,0,1,.6.6.6.6,0,0,1-.6.6Zm2.2-3.578a.6.6,0,0,1-.6-.6.6.6,0,0,1,.6-.6h3.3a1.6,1.6,0,0,0,1.6-1.6,1.6,1.6,0,0,0-1.6-1.6H2035l.351.351a.6.6,0,0,1,0,.849.6.6,0,0,1-.425.176.6.6,0,0,1-.425-.176l-1.377-1.376a.6.6,0,0,1,0-.849l1.377-1.375a.593.593,0,0,1,.425-.176.594.594,0,0,1,.425.176.6.6,0,0,1,0,.849l-.352.351h2.4a2.8,2.8,0,0,1,2.8,2.8,2.805,2.805,0,0,1-2.8,2.8Z" transform="translate(-2028 1154)" ></path>
  </symbol>
  <symbol xmlns="http://www.w3.org/2000/svg" viewBox="0 0 19.307 19.576" id="mydistributor">
    <g id="Group_21108" transform="translate(-11.145 -14.946)">
      <path id="Path_3051" d="M22.1,40.226a3,3,0,1,1,.143,0c-.048,0-.1,0-.143,0m0-5.009a1.984,1.984,0,1,0,1.337.519h0a1.978,1.978,0,0,0-1.336-.517" transform="translate(-2.387 -5.854)"   stroke-width="0.3"></path>
      <path id="Path_3052" d="M26.408,30.178l-.195-.282a3.554,3.554,0,0,0-1.9-1.377l-.294-.087L22.3,20.6a1.142,1.142,0,0,1,.88-1.361L30.21,17.8a1.145,1.145,0,0,1,1.335.864l2.118,9.549a1.5,1.5,0,0,1-1.04.692Zm-1.5-2.556a4.6,4.6,0,0,1,1.952,1.4l5.556-1.135a.1.1,0,0,0,.074-.115l-.137-.661h0l-1.823-8.22a.1.1,0,0,0-.113-.071L23.386,20.26a.1.1,0,0,0-.074.114Z" transform="translate(-3.368 -0.824)"   stroke-width="0.3"></path>
      <path id="Path_3053" d="M18.33,27.471l-2.5-11.316-3.993.18a.52.52,0,1,1-.047-1.038l4.429-.2a.518.518,0,0,1,.531.407l2.594,11.744a.519.519,0,0,1-.4.619h0a.52.52,0,0,1-.62-.4"   stroke-width="0.3"></path>
      <path id="Path_3054" d="M28.731,37.132h0a.52.52,0,0,1,.408-.612l4.225-.846a.52.52,0,1,1,.2,1.02l-4.225.846a.52.52,0,0,1-.612-.408" transform="translate(-5.346 -6.311)"   stroke-width="0.3"></path>
    </g>
  </symbol>
  <symbol xmlns="http://www.w3.org/2000/svg" viewBox="0 0 19.307 19.576" id="mydistributor">
    <g id="Group_21108" transform="translate(-11.145 -14.946)">
      <path id="Path_3051" d="M22.1,40.226a3,3,0,1,1,.143,0c-.048,0-.1,0-.143,0m0-5.009a1.984,1.984,0,1,0,1.337.519h0a1.978,1.978,0,0,0-1.336-.517" transform="translate(-2.387 -5.854)"   stroke-width="0.3"></path>
      <path id="Path_3052" d="M26.408,30.178l-.195-.282a3.554,3.554,0,0,0-1.9-1.377l-.294-.087L22.3,20.6a1.142,1.142,0,0,1,.88-1.361L30.21,17.8a1.145,1.145,0,0,1,1.335.864l2.118,9.549a1.5,1.5,0,0,1-1.04.692Zm-1.5-2.556a4.6,4.6,0,0,1,1.952,1.4l5.556-1.135a.1.1,0,0,0,.074-.115l-.137-.661h0l-1.823-8.22a.1.1,0,0,0-.113-.071L23.386,20.26a.1.1,0,0,0-.074.114Z" transform="translate(-3.368 -0.824)"   stroke-width="0.3"></path>
      <path id="Path_3053" d="M18.33,27.471l-2.5-11.316-3.993.18a.52.52,0,1,1-.047-1.038l4.429-.2a.518.518,0,0,1,.531.407l2.594,11.744a.519.519,0,0,1-.4.619h0a.52.52,0,0,1-.62-.4"   stroke-width="0.3"></path>
      <path id="Path_3054" d="M28.731,37.132h0a.52.52,0,0,1,.408-.612l4.225-.846a.52.52,0,1,1,.2,1.02l-4.225.846a.52.52,0,0,1-.612-.408" transform="translate(-5.346 -6.311)"  stroke-width="0.3"></path>
    </g>
  </symbol>
  <symbol xmlns="http://www.w3.org/2000/svg" viewBox="0 0 19.596 19.596" id="payments">
    <path id="Union_13" d="M2033.256-1134.4a5.223,5.223,0,0,1-3.717-1.54,5.224,5.224,0,0,1-1.539-3.716v-7.268a5.248,5.248,0,0,1,1.263-3.4,5.3,5.3,0,0,1,2.371-1.58v-.47a1.624,1.624,0,0,1,.811-1.4,1.624,1.624,0,0,1,1.621,0,1.624,1.624,0,0,1,.81,1.4v.2h5.844v-.2a1.626,1.626,0,0,1,.811-1.4,1.62,1.62,0,0,1,1.621,0,1.623,1.623,0,0,1,.811,1.4v.47a5.3,5.3,0,0,1,2.371,1.58,5.245,5.245,0,0,1,1.262,3.4v7.27a5.224,5.224,0,0,1-1.539,3.716,5.221,5.221,0,0,1-3.717,1.54Zm-4.2-12.523v7.267a4.172,4.172,0,0,0,1.23,2.971,4.173,4.173,0,0,0,2.971,1.23h9.084a4.174,4.174,0,0,0,2.972-1.23,4.176,4.176,0,0,0,1.23-2.971v-7.268c0-.094-.02-.186-.026-.28h-17.435C2029.073-1147.115,2029.055-1147.021,2029.055-1146.927Zm3.918-5.944a.569.569,0,0,0-.284.491v1.286l-.406.1a4.23,4.23,0,0,0-2.22,1.352,4.171,4.171,0,0,0-.777,1.382h17.024a4.191,4.191,0,0,0-.777-1.382h0a4.223,4.223,0,0,0-2.219-1.352l-.406-.1v-1.286a.569.569,0,0,0-.283-.49.567.567,0,0,0-.568,0,.568.568,0,0,0-.284.49v1.25h-7.951v-1.25a.567.567,0,0,0-.283-.49.571.571,0,0,0-.284-.076A.562.562,0,0,0,2032.972-1152.87Zm5.692,15.678-.006-.005c-.159-.147-.316-.294-.474-.442l-.958-.892-1.064-.989-.8-.746-.184-.17a.5.5,0,0,1-.159-.363v-.268a.485.485,0,0,1,.479-.479h.8a3.993,3.993,0,0,0,.438-.015,2.056,2.056,0,0,0,.406-.11,2.114,2.114,0,0,0,.347-.205,2.124,2.124,0,0,0,.277-.277,2.074,2.074,0,0,0,.205-.347c.013-.036.018-.075.03-.112h-2.747a.5.5,0,0,1-.339-.14.482.482,0,0,1,0-.679.5.5,0,0,1,.339-.14h2.75c-.013-.041-.018-.084-.033-.124a2.133,2.133,0,0,0-.205-.347,2.131,2.131,0,0,0-.277-.278,2.233,2.233,0,0,0-.358-.211,2.1,2.1,0,0,0-.41-.112c-.064-.005-.129-.009-.194-.01h-1.272a.5.5,0,0,1-.339-.139.5.5,0,0,1-.106-.161.484.484,0,0,1,.1-.521.5.5,0,0,1,.339-.14h1.276c.009,0,.017,0,.026,0h3.782a.489.489,0,0,1,.339.139.48.48,0,0,1,0,.679.5.5,0,0,1-.339.139h-1.849a2.156,2.156,0,0,1,.169.2,2.47,2.47,0,0,1,.331.88h1.348a.49.49,0,0,1,.339.14.48.48,0,0,1,0,.679.5.5,0,0,1-.339.14H2039a2.521,2.521,0,0,1-.241.7,2.569,2.569,0,0,1-.868.94,2.522,2.522,0,0,1-1.261.4c-.07,0-.141,0-.212,0l.725.676,1.011.94.839.781.348.326,0-.016a.486.486,0,0,1,.14.34.478.478,0,0,1-.14.338.484.484,0,0,1-.338.14A.5.5,0,0,1,2038.664-1137.192Z" transform="translate(-2028 1154)" ></path>
  </symbol>
  <symbol xmlns="http://www.w3.org/2000/svg" viewBox="0 0 17 15.299" id="message">
    <g id="Group_20961">
      <g id="Group_1522" transform="translate(0 0)">
        <path id="Path_2143" d="M8.48,15.3a1.171,1.171,0,0,1-1-.559L5.988,12.4H2.9A2.9,2.9,0,0,1,0,9.5V2.9A2.9,2.9,0,0,1,2.9,0H14.1A2.9,2.9,0,0,1,17,2.9V9.5a2.9,2.9,0,0,1-2.9,2.9H10.972l-1.5,2.354a1.167,1.167,0,0,1-1,.549M2.9.987A1.911,1.911,0,0,0,.987,2.9V9.5A1.91,1.91,0,0,0,2.9,11.409H6.529l1.787,2.811a.2.2,0,0,0,.322.011l1.793-2.822H14.1A1.911,1.911,0,0,0,16.013,9.5V2.9A1.911,1.911,0,0,0,14.1.987Z"></path>
      </g>
    </g>
  </symbol>
  <symbol xmlns="http://www.w3.org/2000/svg" viewBox="0 0 15.193 15.918" id="invoice">
    <g id="Group_21087" transform="translate(0.15 0.15)">
      <path id="Path_3018" d="M30.847,16.476a1.115,1.115,0,0,0-1.107-1.108H19.6a1.477,1.477,0,0,0-1.471,1.471v5.767H16.338a.381.381,0,0,0-.383.379V27.36a1.446,1.446,0,0,0,1.395,1.463c.977.018,1.973.007,2.956.007v1.777a.38.38,0,0,0,.383.379h9.052a1.109,1.109,0,0,0,1.107-1.107ZM18.13,27.36a.7.7,0,0,1-.685.708h-.02a.7.7,0,0,1-.708-.692V23.368H18.13Zm2.175.708H18.7a1.447,1.447,0,0,0,.191-.708V16.839a.7.7,0,0,1,.689-.708H19.6a.7.7,0,0,1,.7.691V28.068Zm9.777,1.811a.335.335,0,0,1-.326.343H21.069V16.836a1.455,1.455,0,0,0-.191-.708h8.863a.335.335,0,0,1,.343.326V29.88Z" transform="translate(-15.955 -15.368)" fill="#fff" stroke="#fff" stroke-width="0.3"></path>
      <path id="Path_3019" d="M31.688,29.818H28.5a.464.464,0,1,1,0-.927h3.189a.464.464,0,1,1,0,.927" transform="translate(-20.567 -20.531)" fill="#fff" stroke="#fff" stroke-width="0.3"></path>
      <path id="Path_3020" d="M31.688,26.286H28.5a.464.464,0,1,1,0-.927h3.189a.464.464,0,1,1,0,.927" transform="translate(-20.567 -19.183)" fill="#fff" stroke="#fff" stroke-width="0.3"></path>
    </g>
  </symbol>
</svg> 