<svg width="58" height="58" viewBox="0 0 58 58" fill="none" xmlns="http://www.w3.org/2000/svg">
<path d="M50.8016 48.0605C55.267 42.9571 57.9927 36.3073 57.9927 29.0002C57.9927 13.0136 44.983 0.00390625 28.9963 0.00390625C13.0097 0.00390625 0 13.0136 0 29.0002C0 44.9869 13.0097 57.9966 28.9963 57.9966C36.3034 57.9966 42.9532 55.2709 48.0566 50.8055L54.6871 57.436C55.0737 57.8033 55.557 57.9966 56.0596 57.9966C56.5622 57.9966 57.0455 57.8033 57.4321 57.436C58.186 56.6821 58.186 55.4642 57.4321 54.7103L50.8016 48.0605ZM3.86618 29.0002C3.86618 15.14 15.1361 3.87008 28.9963 3.87008C42.8566 3.87008 54.1265 15.14 54.1265 29.0002C54.1265 42.8605 42.8566 54.1304 28.9963 54.1304C15.1361 54.1304 3.86618 42.8605 3.86618 29.0002ZM17.3978 23.201C17.3978 21.0746 19.1376 19.3348 21.264 19.3348C23.3904 19.3348 25.1302 21.0746 25.1302 23.201C25.1302 25.3274 23.3904 27.0672 21.264 27.0672C19.1376 27.0672 17.3978 25.3274 17.3978 23.201ZM40.5949 23.201C40.5949 25.3274 38.8551 27.0672 36.7287 27.0672C34.6023 27.0672 32.8625 25.3274 32.8625 23.201C32.8625 21.0746 34.6023 19.3348 36.7287 19.3348C38.8551 19.3348 40.5949 21.0746 40.5949 23.201ZM39.6283 35.94C40.0536 36.9066 39.6283 38.0664 38.6424 38.4917C38.3911 38.6077 38.1205 38.6657 37.8692 38.6657C37.1346 38.6657 36.4194 38.2404 36.0908 37.5058C34.8536 34.6835 32.0506 32.8664 28.9963 32.8664C25.9421 32.8664 23.1391 34.6835 21.8826 37.5252C21.4573 38.4917 20.3168 38.9557 19.3309 38.511C18.3643 38.0858 17.9197 36.9452 18.345 35.9594C20.2201 31.7259 24.4149 29.0002 28.9963 29.0002C33.5778 29.0002 37.7726 31.7259 39.6283 35.94Z" fill="#1439BB"/>
</svg>
