<svg width="57" height="59" viewBox="0 0 57 59" fill="none" xmlns="http://www.w3.org/2000/svg">
<path d="M10.4029 12.0656C10.4029 11.7761 10.5179 11.4985 10.7226 11.2938C10.9273 11.0891 11.205 10.9741 11.4945 10.9741H38.717C39.0065 10.9741 39.2841 11.0891 39.4889 11.2938C39.6936 11.4985 39.8086 11.7761 39.8086 12.0656C39.8086 12.3551 39.6936 12.6328 39.4889 12.8375C39.2841 13.0422 39.0065 13.1572 38.717 13.1572H11.4945C11.205 13.1572 10.9273 13.0422 10.7226 12.8375C10.5179 12.6328 10.4029 12.3551 10.4029 12.0656ZM11.4945 22.7585H38.717C39.0065 22.7585 39.2841 22.6435 39.4889 22.4388C39.6936 22.234 39.8086 21.9564 39.8086 21.6669C39.8086 21.3774 39.6936 21.0998 39.4889 20.8951C39.2841 20.6903 39.0065 20.5753 38.717 20.5753H11.4945C11.205 20.5753 10.9273 20.6903 10.7226 20.8951C10.5179 21.0998 10.4029 21.3774 10.4029 21.6669C10.4029 21.9564 10.5179 22.234 10.7226 22.4388C10.9273 22.6435 11.205 22.7585 11.4945 22.7585ZM11.4945 32.3586H38.717C39.0065 32.3586 39.2841 32.2436 39.4889 32.0389C39.6936 31.8342 39.8086 31.5566 39.8086 31.2671C39.8086 30.9776 39.6936 30.6999 39.4889 30.4952C39.2841 30.2905 39.0065 30.1755 38.717 30.1755H11.4945C11.205 30.1755 10.9273 30.2905 10.7226 30.4952C10.5179 30.6999 10.4029 30.9776 10.4029 31.2671C10.4029 31.5566 10.5179 31.8342 10.7226 32.0389C10.9273 32.2436 11.205 32.3586 11.4945 32.3586ZM31.0893 39.7757H11.4945C11.205 39.7757 10.9273 39.8907 10.7226 40.0954C10.5179 40.3001 10.4029 40.5777 10.4029 40.8672C10.4029 41.1567 10.5179 41.4344 10.7226 41.6391C10.9273 41.8438 11.205 41.9588 11.4945 41.9588H31.0893C31.3788 41.9588 31.6564 41.8438 31.8611 41.6391C32.0658 41.4344 32.1809 41.1567 32.1809 40.8672C32.1809 40.5777 32.0658 40.3001 31.8611 40.0954C31.6564 39.8907 31.3788 39.7757 31.0893 39.7757ZM57 47.5367C57.0011 50.0829 56.1498 52.5561 54.5817 54.5622C53.0137 56.5682 50.8192 57.9916 48.3481 58.6053C45.877 59.219 43.2715 58.9878 40.9471 57.9485C38.6227 56.9092 36.7132 55.1216 35.5229 52.8708H8.73249C6.4173 52.8681 4.1977 51.9473 2.56062 50.3102C0.923538 48.6731 0.00265788 46.4535 0 44.1383V8.79358C0.00265788 6.4784 0.923538 4.2588 2.56062 2.62172C4.1977 0.984635 6.4173 0.0637541 8.73249 0.0610962H41.4793C43.7945 0.0637252 46.0141 0.984597 47.6512 2.62169C49.2883 4.25878 50.2092 6.47839 50.2118 8.79358V37.1182C52.2295 38.0126 53.9446 39.4728 55.1494 41.322C56.3542 43.1712 56.997 45.3296 57 47.5367ZM34.644 50.6881C34.0934 48.7914 34.0459 46.784 34.506 44.8634C34.9662 42.9427 35.9181 41.1748 37.2684 39.7335C38.6187 38.2921 40.3207 37.2269 42.2073 36.6425C44.0939 36.0582 46.1001 35.9747 48.0287 36.4005V8.79413C48.0268 7.05771 47.3361 5.39297 46.1083 4.16513C44.8805 2.9373 43.2157 2.24667 41.4793 2.24476H8.73249C6.99607 2.24667 5.33132 2.9373 4.10349 4.16513C2.87566 5.39297 2.18503 7.05771 2.18312 8.79413V44.1389C2.18503 45.8753 2.87566 47.54 4.10349 48.7679C5.33132 49.9957 6.99607 50.6863 8.73249 50.6882L34.644 50.6881ZM54.8169 47.5371C54.8168 45.7133 54.2759 43.9305 53.2626 42.4141C52.2492 40.8977 50.809 39.7159 49.124 39.018C47.439 38.3202 45.5849 38.1376 43.7961 38.4935C42.0074 38.8494 40.3644 39.7278 39.0748 41.0175C37.7853 42.3072 36.9071 43.9503 36.5514 45.7391C36.1957 47.5278 36.3784 49.3819 37.0764 51.0669C37.7745 52.7518 38.9565 54.1919 40.473 55.2051C41.9894 56.2182 43.7723 56.7589 45.5961 56.7588C48.041 56.7562 50.3849 55.7838 52.1136 54.0549C53.8423 52.326 54.8145 49.982 54.8169 47.5371ZM49.7651 46.4456H46.6877V42.7452C46.6877 42.4557 46.5727 42.178 46.368 41.9733C46.1633 41.7686 45.8856 41.6536 45.5961 41.6536C45.3066 41.6536 45.029 41.7686 44.8243 41.9733C44.6196 42.178 44.5046 42.4557 44.5046 42.7452V47.5371C44.5046 47.8266 44.6196 48.1043 44.8243 48.309C45.029 48.5137 45.3066 48.6287 45.5961 48.6287H49.7651C50.0546 48.6287 50.3323 48.5137 50.537 48.309C50.7417 48.1043 50.8567 47.8266 50.8567 47.5371C50.8567 47.2476 50.7417 46.97 50.537 46.7653C50.3323 46.5606 50.0546 46.4456 49.7651 46.4456Z" fill="#1439BB"/>
</svg>
