<svg width="46" height="46" viewBox="0 0 46 46" fill="none" xmlns="http://www.w3.org/2000/svg">
<path d="M32.4556 20.9551H13.5444C12.42 20.9551 11.5 21.8751 11.5 22.9995C11.5 24.124 12.42 25.044 13.5444 25.044H32.4556C33.58 25.044 34.5 24.124 34.5 22.9995C34.5 21.8751 33.58 20.9551 32.4556 20.9551Z" fill="#FF7E00"/>
<path d="M23 0C10.2974 0 0 10.2974 0 23C0 35.7021 10.2974 46 23 46C35.7021 46 46 35.7021 46 23C46 10.2974 35.7021 0 23 0ZM23 43.4444C11.7085 43.4444 2.55556 34.291 2.55556 23C2.55556 11.7085 11.7085 2.55556 23 2.55556C34.291 2.55556 43.4444 11.7085 43.4444 23C43.4444 34.291 34.291 43.4444 23 43.4444Z" fill="#1439BB"/>
</svg>
