<svg width="20" height="21" viewBox="0 0 20 21" fill="none" xmlns="http://www.w3.org/2000/svg">
<path d="M17.1963 13.1982L17.7266 12.6679L17.7266 12.6679L17.1963 13.1982ZM17.5858 13.5878L17.0555 14.1181L17.0555 14.1181L17.5858 13.5878ZM17.9478 15.3216L18.6584 15.5613L17.9478 15.3216ZM17.3198 15.9495L17.5595 16.6601L17.3198 15.9495ZM17.8124 13.8329L18.4217 13.3955L17.8124 13.8329ZM17.9868 14.2543L17.2467 14.3757L17.9868 14.2543ZM10 2.00195L10 1.25195L10 2.00195ZM2.0132 14.2543L2.7533 14.3757L2.0132 14.2543ZM2.1875 13.8329L1.57829 13.3955L2.1875 13.8329ZM2.05245 15.3216L2.76311 15.0819L2.05245 15.3216ZM2.68018 15.9495L2.91989 15.2388L2.68018 15.9495ZM13 16.002H13.75C13.75 15.5877 13.4142 15.252 13 15.252V16.002ZM7 16.002V15.252C6.58579 15.252 6.25 15.5877 6.25 16.002H7ZM16.4699 0.416648C16.1391 0.167368 15.6689 0.233458 15.4196 0.564264C15.1703 0.895069 15.2364 1.36532 15.5672 1.6146L16.4699 0.416648ZM18.4845 5.31651C18.6495 5.69643 19.0913 5.87062 19.4712 5.70559C19.8511 5.54056 20.0253 5.09879 19.8603 4.71887L18.4845 5.31651ZM4.43333 1.6146C4.76413 1.36532 4.83022 0.895069 4.58094 0.564264C4.33166 0.233458 3.86141 0.167368 3.5306 0.416648L4.43333 1.6146ZM0.140226 4.71887C-0.0248091 5.09879 0.149387 5.54056 0.529303 5.70559C0.90922 5.87062 1.35099 5.69643 1.51602 5.31651L0.140226 4.71887ZM2.94439 14.1181L3.3339 13.7286L2.27324 12.6679L1.88373 13.0574L2.94439 14.1181ZM3.75 12.7244V9.00195H2.25V12.7244H3.75ZM16.25 9.00195V12.7244H17.75V9.00195H16.25ZM16.6659 13.7286L17.0555 14.1181L18.1162 13.0575L17.7266 12.6679L16.6659 13.7286ZM16.5856 15.252H3.41406V16.752H16.5856V15.252ZM17.2502 14.5878C17.2502 14.789 17.2499 14.9089 17.2449 14.9986C17.2401 15.083 17.2328 15.0947 17.2371 15.0819L18.6584 15.5613C18.7601 15.2598 18.7502 14.9128 18.7502 14.5878H17.2502ZM16.5856 16.752C16.9107 16.752 17.258 16.7618 17.5595 16.6601L17.0801 15.2388C17.0929 15.2345 17.0812 15.2418 16.9966 15.2466C16.9068 15.2517 16.7868 15.252 16.5856 15.252V16.752ZM17.2371 15.0819C17.2122 15.1557 17.1542 15.2138 17.0801 15.2388L17.5595 16.6601C18.0771 16.4855 18.4837 16.0792 18.6584 15.5613L17.2371 15.0819ZM17.0555 14.1181C17.1185 14.1811 17.1535 14.2162 17.1795 14.2438C17.2022 14.268 17.2053 14.2733 17.2032 14.2704L18.4217 13.3955C18.3301 13.2679 18.2176 13.1589 18.1162 13.0575L17.0555 14.1181ZM18.7502 14.5878C18.7502 14.442 18.7523 14.2872 18.7269 14.1328L17.2467 14.3757C17.2463 14.373 17.2478 14.3794 17.2489 14.4123C17.2501 14.4497 17.2502 14.4994 17.2502 14.5878H18.7502ZM17.2032 14.2704C17.2254 14.3013 17.2404 14.3373 17.2467 14.3757L18.7269 14.1328C18.6833 13.8672 18.5791 13.6148 18.4217 13.3955L17.2032 14.2704ZM16.25 12.7244C16.25 13.101 16.3996 13.4622 16.6659 13.7286L17.7266 12.6679C17.7416 12.6829 17.75 12.7032 17.75 12.7244H16.25ZM10 2.75195C13.4518 2.75194 16.25 5.55017 16.25 9.00195H17.75C17.75 4.72174 14.2802 1.25194 10 1.25195L10 2.75195ZM3.75 9.00195C3.75 5.55018 6.54823 2.75196 10 2.75195L10 1.25195C5.7198 1.25196 2.25 4.72175 2.25 9.00195H3.75ZM3.3339 13.7286C3.59991 13.4626 3.75 13.1015 3.75 12.7244H2.25C2.25 12.7028 2.25858 12.6826 2.27324 12.6679L3.3339 13.7286ZM2.75 14.5878C2.75 14.4989 2.75009 14.4493 2.75128 14.4116C2.75232 14.3786 2.75383 14.3725 2.7533 14.3757L1.2731 14.1328C1.2477 14.2876 1.25 14.4435 1.25 14.5878H2.75ZM1.88373 13.0574C1.78188 13.1593 1.66981 13.268 1.57829 13.3955L2.79671 14.2704C2.79475 14.2731 2.79793 14.2678 2.8206 14.2437C2.84646 14.2161 2.88152 14.181 2.94439 14.1181L1.88373 13.0574ZM2.7533 14.3757C2.75965 14.337 2.77466 14.3011 2.79671 14.2704L1.57829 13.3955C1.42065 13.615 1.31664 13.8675 1.2731 14.1328L2.7533 14.3757ZM1.25 14.5878C1.25 14.9128 1.24008 15.2598 1.34179 15.5613L2.76311 15.0819C2.76745 15.0947 2.76014 15.083 2.75536 14.9986C2.75028 14.9089 2.75 14.789 2.75 14.5878H1.25ZM3.41406 15.252C3.21286 15.252 3.093 15.2517 3.0033 15.2466C2.91882 15.2418 2.90707 15.2345 2.91989 15.2388L2.44046 16.6601C2.74197 16.7618 3.08895 16.752 3.41406 16.752V15.252ZM1.34179 15.5613C1.51638 16.0789 1.92252 16.4854 2.44046 16.6601L2.91989 15.2388C2.8461 15.2139 2.78812 15.156 2.76311 15.0819L1.34179 15.5613ZM12.25 16.002V17.002H13.75V16.002H12.25ZM7.75 17.002V16.002H6.25V17.002H7.75ZM7 16.752H13V15.252H7V16.752ZM10 19.252C8.75736 19.252 7.75 18.2446 7.75 17.002H6.25C6.25 19.073 7.92893 20.752 10 20.752V19.252ZM12.25 17.002C12.25 18.2446 11.2426 19.252 10 19.252V20.752C12.0711 20.752 13.75 19.073 13.75 17.002H12.25ZM15.5672 1.6146C16.843 2.57597 17.848 3.85134 18.4845 5.31651L19.8603 4.71887C19.1206 3.0161 17.9526 1.53391 16.4699 0.416648L15.5672 1.6146ZM3.5306 0.416648C2.04795 1.53391 0.879904 3.0161 0.140226 4.71887L1.51602 5.31651C2.15249 3.85134 3.15755 2.57597 4.43333 1.6146L3.5306 0.416648Z" fill="#FF7E00"/>
</svg>
