<svg width="49" height="45" viewBox="0 0 49 45" fill="none" xmlns="http://www.w3.org/2000/svg">
<g id="Group 1000003252">
<g id="Group 1000003364">
<path id="Subtract" d="M28.248 42.4691C28.6255 42.191 29.1687 42.2052 29.5313 42.5509L30.4141 43.3925C30.9325 43.8867 31.7872 43.6916 32.0398 43.0214L32.4701 41.8802C32.6897 41.2976 33.3825 41.0552 33.9174 41.3737L34.9653 41.9977C35.5807 42.3642 36.3705 41.9838 36.4677 41.2742L36.6332 40.0659C36.7177 39.4491 37.3392 39.0585 37.9316 39.2501L39.0921 39.6252C39.7736 39.8456 40.4589 39.299 40.3958 38.5856L40.2882 37.3707C40.2334 36.7505 40.7524 36.2315 41.3725 36.2864L42.5874 36.3939C43.3009 36.4571 43.8474 35.7717 43.6271 35.0902L43.2519 33.9297C43.0604 33.3373 43.4509 32.7158 44.0677 32.6314L45.2761 32.4659C45.9857 32.3687 46.3661 31.5789 45.9996 30.9635L45.3756 29.9156C45.0571 29.3807 45.2995 28.6878 45.882 28.4682L47.0233 28.038C47.6935 27.7853 47.8885 26.9307 47.3943 26.4123L46.5528 25.5295C46.1232 25.0789 46.2054 24.3495 46.7245 24.0057L47.7414 23.3323C48.3385 22.9369 48.3385 22.0603 47.7414 21.6648L46.7245 20.9914C46.2054 20.6477 46.1232 19.9183 46.5528 19.4677L47.3943 18.5849C47.8885 18.0665 47.6935 17.2118 47.0233 16.9592L45.882 16.5289C45.2995 16.3093 45.0571 15.6165 45.3756 15.0816L45.9996 14.0337C46.3661 13.4183 45.9857 12.6285 45.2761 12.5313L44.0677 12.3658C43.4509 12.2813 43.0604 11.6598 43.2519 11.0674L43.6271 9.90694C43.8474 9.22544 43.3009 8.54006 42.5874 8.60322L41.3725 8.71076C40.7524 8.76566 40.2334 8.24663 40.2882 7.62648L40.3958 6.4116C40.4589 5.69815 39.7736 5.15158 39.0921 5.37191L37.9316 5.74709C37.3392 5.93861 36.7177 5.54809 36.6332 4.93127L36.4677 3.72292C36.3705 3.01331 35.5807 2.63296 34.9653 2.99941L33.9174 3.62342C33.3825 3.94195 32.6897 3.69952 32.4701 3.11697L32.0398 1.97574C31.7872 1.30554 30.9325 1.11047 30.4141 1.60468L29.5313 2.44622C29.1687 2.79194 28.6255 2.8062 28.248 2.52804L28.4701 3.11697C28.6897 3.69952 29.3825 3.94195 29.9174 3.62342L30.9653 2.99941C31.5807 2.63296 32.3705 3.01331 32.4677 3.72292L32.6332 4.93127C32.7177 5.54809 33.3392 5.93861 33.9316 5.74709L35.0921 5.37191C35.7736 5.15158 36.4589 5.69815 36.3958 6.4116L36.2882 7.62648C36.2334 8.24663 36.7524 8.76566 37.3725 8.71076L38.5874 8.60322C39.3009 8.54006 39.8474 9.22544 39.6271 9.90694L39.2519 11.0674C39.0604 11.6598 39.4509 12.2813 40.0677 12.3658L41.2761 12.5313C41.9857 12.6285 42.3661 13.4183 41.9996 14.0337L41.3756 15.0816C41.0571 15.6165 41.2995 16.3093 41.882 16.5289L43.0233 16.9592C43.6935 17.2118 43.8885 18.0665 43.3943 18.5849L42.5528 19.4677C42.1232 19.9183 42.2054 20.6477 42.7245 20.9914L43.7414 21.6648C44.3385 22.0603 44.3385 22.9369 43.7414 23.3323L42.7245 24.0057C42.2054 24.3495 42.1232 25.0789 42.5528 25.5295L43.3943 26.4123C43.8885 26.9307 43.6935 27.7853 43.0233 28.038L41.882 28.4682C41.2995 28.6878 41.0571 29.3807 41.3756 29.9156L41.9996 30.9635C42.3661 31.5789 41.9857 32.3687 41.2761 32.4659L40.0677 32.6314C39.4509 32.7158 39.0604 33.3373 39.2519 33.9297L39.6271 35.0902C39.8474 35.7717 39.3009 36.4571 38.5874 36.3939L37.3725 36.2864C36.7524 36.2315 36.2334 36.7505 36.2882 37.3707L36.3958 38.5856C36.4589 39.299 35.7736 39.8456 35.0921 39.6252L33.9316 39.2501C33.3392 39.0585 32.7177 39.4491 32.6332 40.0659L32.4677 41.2742C32.3705 41.9838 31.5807 42.3642 30.9653 41.9977L29.9174 41.3737C29.3825 41.0552 28.6897 41.2976 28.4701 41.8802L28.248 42.4691Z" fill="#7080CD"/>
<g id="Group 1000003359">
<path id="Star 8" d="M21.6662 1.25908C22.0617 0.661904 22.9383 0.661903 23.3338 1.25907L24.0071 2.27596C24.3509 2.79504 25.0803 2.87722 25.5309 2.44764L26.4137 1.6061C26.9321 1.11189 27.7868 1.30696 28.0394 1.97716L28.4696 3.11839C28.6892 3.70094 29.3821 3.94337 29.917 3.62484L30.9649 3.00083C31.5803 2.63438 32.3701 3.01473 32.4673 3.72434L32.6328 4.93269C32.7173 5.54951 33.3388 5.94003 33.9311 5.74852L35.0916 5.37333C35.7731 5.153 36.4585 5.69957 36.3954 6.41302L36.2878 7.6279C36.2329 8.24805 36.7519 8.76708 37.3721 8.71218L38.587 8.60464C39.3004 8.54148 39.847 9.22686 39.6267 9.90836L39.2515 11.0689C39.06 11.6612 39.4505 12.2827 40.0673 12.3672L41.2757 12.5327C41.9853 12.6299 42.3656 13.4197 41.9992 14.0351L41.3752 15.083C41.0566 15.6179 41.2991 16.3108 41.8816 16.5304L43.0228 16.9606C43.693 17.2132 43.8881 18.0679 43.3939 18.5863L42.5524 19.4691C42.1228 19.9197 42.205 20.6491 42.724 20.9929L43.7409 21.6662C44.3381 22.0617 44.3381 22.9383 43.7409 23.3338L42.724 24.0071C42.205 24.3509 42.1228 25.0803 42.5524 25.5309L43.3939 26.4137C43.8881 26.9321 43.693 27.7868 43.0228 28.0394L41.8816 28.4696C41.2991 28.6892 41.0566 29.3821 41.3752 29.917L41.9992 30.9649C42.3656 31.5803 41.9853 32.3701 41.2757 32.4673L40.0673 32.6328C39.4505 32.7173 39.06 33.3388 39.2515 33.9311L39.6267 35.0916C39.847 35.7731 39.3004 36.4585 38.587 36.3954L37.3721 36.2878C36.7519 36.2329 36.2329 36.7519 36.2878 37.3721L36.3954 38.587C36.4585 39.3004 35.7731 39.847 35.0916 39.6267L33.9311 39.2515C33.3388 39.06 32.7173 39.4505 32.6328 40.0673L32.4673 41.2757C32.3701 41.9853 31.5803 42.3656 30.9649 41.9992L29.917 41.3752C29.3821 41.0566 28.6892 41.2991 28.4696 41.8816L28.0394 43.0228C27.7868 43.693 26.9321 43.8881 26.4137 43.3939L25.5309 42.5524C25.0803 42.1228 24.3509 42.205 24.0071 42.724L23.3338 43.7409C22.9383 44.3381 22.0617 44.3381 21.6662 43.7409L20.9929 42.724C20.6491 42.205 19.9197 42.1228 19.4691 42.5524L18.5863 43.3939C18.0679 43.8881 17.2132 43.693 16.9606 43.0228L16.5304 41.8816C16.3108 41.2991 15.6179 41.0566 15.083 41.3752L14.0351 41.9992C13.4197 42.3656 12.6299 41.9853 12.5327 41.2757L12.3672 40.0673C12.2827 39.4505 11.6612 39.06 11.0689 39.2515L9.90836 39.6267C9.22686 39.847 8.54148 39.3004 8.60464 38.587L8.71218 37.3721C8.76708 36.7519 8.24805 36.2329 7.6279 36.2878L6.41302 36.3954C5.69957 36.4585 5.153 35.7731 5.37333 35.0916L5.74851 33.9311C5.94003 33.3388 5.54951 32.7173 4.93269 32.6328L3.72434 32.4673C3.01473 32.3701 2.63438 31.5803 3.00083 30.9649L3.62484 29.917C3.94337 29.3821 3.70094 28.6892 3.11839 28.4696L1.97716 28.0394C1.30696 27.7868 1.11189 26.9321 1.6061 26.4137L2.44764 25.5309C2.87722 25.0803 2.79504 24.3509 2.27596 24.0071L1.25908 23.3338C0.661904 22.9383 0.661903 22.0617 1.25907 21.6662L2.27596 20.9929C2.79504 20.6491 2.87722 19.9197 2.44764 19.4691L1.6061 18.5863C1.11189 18.0679 1.30696 17.2132 1.97716 16.9606L3.11839 16.5304C3.70094 16.3108 3.94337 15.6179 3.62484 15.083L3.00083 14.0351C2.63438 13.4197 3.01473 12.6299 3.72434 12.5327L4.93269 12.3672C5.54951 12.2827 5.94003 11.6612 5.74852 11.0689L5.37333 9.90836C5.153 9.22686 5.69957 8.54148 6.41302 8.60464L7.6279 8.71218C8.24805 8.76708 8.76708 8.24805 8.71218 7.6279L8.60464 6.41302C8.54148 5.69957 9.22686 5.153 9.90836 5.37333L11.0689 5.74852C11.6612 5.94003 12.2827 5.54951 12.3672 4.93269L12.5327 3.72434C12.6299 3.01473 13.4197 2.63438 14.0351 3.00083L15.083 3.62484C15.6179 3.94337 16.3108 3.70094 16.5304 3.11839L16.9606 1.97716C17.2132 1.30696 18.0679 1.11189 18.5863 1.6061L19.4691 2.44764C19.9197 2.87722 20.6491 2.79504 20.9929 2.27596L21.6662 1.25908Z" fill="#8E9DDE"/>
</g>
</g>
<g id="Group 1000003360">
<path id="%" d="M17.9369 31.033C17.3613 31.598 16.4392 31.5976 15.8641 31.0322C15.2744 30.4525 15.2746 29.502 15.8645 28.9226L30.6345 14.4133C31.2128 13.8451 32.1403 13.8467 32.7166 14.4169C33.3049 14.9989 33.3031 15.9498 32.7125 16.5295L17.9369 31.033ZM29.8318 32.4395C28.9618 32.4395 28.1665 32.2322 27.4459 31.8175C26.734 31.3941 26.1628 30.8325 25.7322 30.1327C25.3016 29.4242 25.0862 28.638 25.0862 27.774C25.0862 26.9273 25.3059 26.1498 25.7453 25.4413C26.1848 24.7328 26.7648 24.1669 27.4854 23.7436C28.206 23.3202 28.9882 23.1086 29.8318 23.1086C30.7019 23.1086 31.4972 23.3202 32.2178 23.7436C32.9384 24.1583 33.5097 24.7199 33.9315 25.4283C34.3621 26.1282 34.5774 26.9101 34.5774 27.774C34.5774 28.638 34.3621 29.4242 33.9315 30.1327C33.5097 30.8325 32.9384 31.3941 32.2178 31.8175C31.4972 32.2322 30.7019 32.4395 29.8318 32.4395ZM29.8318 29.7698C30.1922 29.7698 30.5261 29.6791 30.8337 29.4977C31.1501 29.3162 31.4005 29.0743 31.5851 28.7719C31.7696 28.4695 31.8619 28.1369 31.8619 27.774C31.8619 27.4112 31.7696 27.0785 31.5851 26.7761C31.4005 26.4738 31.1501 26.2318 30.8337 26.0504C30.5261 25.869 30.1922 25.7783 29.8318 25.7783C29.4627 25.7783 29.1244 25.869 28.8168 26.0504C28.5092 26.2318 28.2588 26.4738 28.0654 26.7761C27.8809 27.0785 27.7886 27.4112 27.7886 27.774C27.7886 28.1369 27.8809 28.4695 28.0654 28.7719C28.2588 29.0743 28.5092 29.3162 28.8168 29.4977C29.1244 29.6791 29.4627 29.7698 29.8318 29.7698ZM18.7456 22.331C17.8756 22.331 17.0802 22.1236 16.3596 21.7089C15.639 21.2856 15.0634 20.724 14.6327 20.0242C14.2109 19.3157 14 18.5295 14 17.6655C14 16.8188 14.2197 16.0412 14.6591 15.3327C15.0985 14.6243 15.6785 14.0584 16.3992 13.635C17.1198 13.2117 17.9019 13 18.7456 13C19.6156 13 20.4066 13.2117 21.1184 13.635C21.839 14.0497 22.4146 14.6113 22.8453 15.3198C23.2759 16.0196 23.4912 16.8015 23.4912 17.6655C23.4912 18.5295 23.2759 19.3157 22.8453 20.0242C22.4146 20.724 21.839 21.2856 21.1184 21.7089C20.4066 22.1236 19.6156 22.331 18.7456 22.331ZM18.7456 19.6613C19.1147 19.6613 19.453 19.5706 19.7606 19.3891C20.0682 19.2077 20.3143 18.9658 20.4988 18.6634C20.6834 18.361 20.7757 18.0284 20.7757 17.6655C20.7757 17.3026 20.6834 16.97 20.4988 16.6676C20.3143 16.3652 20.0682 16.1233 19.7606 15.9418C19.453 15.7604 19.1147 15.6697 18.7456 15.6697C18.3765 15.6697 18.0382 15.7604 17.7306 15.9418C17.423 16.1233 17.1769 16.3652 16.9924 16.6676C16.8078 16.97 16.7155 17.3026 16.7155 17.6655C16.7155 18.0284 16.8078 18.361 16.9924 18.6634C17.1769 18.9658 17.423 19.2077 17.7306 19.3891C18.0382 19.5706 18.3765 19.6613 18.7456 19.6613Z" fill="#EDE9ED"/>
<g id="Subtract_2">
<path d="M17 31.3698C17.1951 31.2998 17.3785 31.1876 17.536 31.033L32.3116 16.5295C32.9022 15.9498 32.904 14.9989 32.3157 14.4169C32.1566 14.2595 31.9707 14.1454 31.7728 14.0747C32.2935 13.8886 32.8972 14.0029 33.3157 14.4169C33.904 14.9989 33.9022 15.9498 33.3116 16.5295L18.536 31.033C18.1182 31.4432 17.5177 31.5554 17 31.3698Z" fill="#C9C6C9"/>
<path d="M29.938 23.1334C30.6124 23.2005 31.2387 23.4039 31.8169 23.7436C32.5375 24.1583 33.1088 24.7199 33.5306 25.4283C33.9612 26.1282 34.1765 26.9101 34.1765 27.774C34.1765 28.638 33.9612 29.4242 33.5306 30.1327C33.1088 30.8325 32.5375 31.3941 31.8169 31.8175C31.2367 32.1514 30.608 32.3509 29.9309 32.4159C30.0948 32.4317 30.2614 32.4395 30.4309 32.4395C31.301 32.4395 32.0963 32.2322 32.8169 31.8175C33.5375 31.3941 34.1088 30.8325 34.5306 30.1327C34.9612 29.4242 35.1765 28.638 35.1765 27.774C35.1765 26.9101 34.9612 26.1282 34.5306 25.4283C34.1088 24.7199 33.5375 24.1583 32.8169 23.7436C32.0963 23.3202 31.301 23.1086 30.4309 23.1086C30.2642 23.1086 30.0999 23.1168 29.938 23.1334Z" fill="#C9C6C9"/>
<path d="M18.8515 13.0248C19.5244 13.092 20.1464 13.2954 20.7175 13.635C21.4381 14.0497 22.0137 14.6113 22.4444 15.3198C22.875 16.0196 23.0903 16.8015 23.0903 17.6655C23.0903 18.5295 22.875 19.3157 22.4444 20.0242C22.0137 20.724 21.4381 21.2856 20.7175 21.7089C20.1444 22.0428 19.5201 22.2423 18.8444 22.3073C19.0084 22.3231 19.1751 22.331 19.3447 22.331C20.2147 22.331 21.0057 22.1236 21.7175 21.7089C22.4381 21.2856 23.0137 20.724 23.4444 20.0242C23.875 19.3157 24.0903 18.5295 24.0903 17.6655C24.0903 16.8015 23.875 16.0196 23.4444 15.3198C23.0137 14.6113 22.4381 14.0497 21.7175 13.635C21.0057 13.2117 20.2147 13 19.3447 13C19.1779 13 19.0135 13.0083 18.8515 13.0248Z" fill="#C9C6C9"/>
</g>
</g>
</g>
</svg>
