<svg width="75" height="74" viewBox="0 0 75 74" fill="none" xmlns="http://www.w3.org/2000/svg">
<g id="Frame 1000003135">
<g id="Group 1000003215">
<rect id="Rectangle 4842" x="0.5" y="0.5" width="74" height="73" rx="9.5" fill="#FFF2ED" stroke="#E2E4E9"/>
<path id="Rectangle 4843" d="M74 20H71C41.7289 20 18 43.7289 18 73H65C69.9706 73 74 68.9706 74 64V20Z" fill="#FFE0D8"/>
<g id="Group 1000003253">
<path id="Vector" d="M59.0034 35.1958L58.6191 34.7484C57.77 33.7563 57.2353 31.7613 57.4745 30.4776L57.5834 29.898C57.7661 28.9273 57.5767 27.8915 57.0513 26.982C56.526 26.0725 55.7239 25.3906 54.793 25.0629L54.2355 24.8668C53.0036 24.4336 51.5432 22.9726 51.1093 21.7407L50.9132 21.1845C50.3301 19.5279 48.6039 18.3256 46.8063 18.3256C46.5618 18.3256 46.3173 18.3485 46.0795 18.3928L45.4991 18.5016C45.2936 18.5399 45.0639 18.5594 44.818 18.5594C43.5511 18.5594 42.0412 18.0536 41.2284 17.357L40.781 16.9734C40.0313 16.3305 39.0399 15.9766 37.9893 15.9766C36.9387 15.9766 35.9473 16.3305 35.1977 16.9734L34.7503 17.3576C33.9375 18.0536 32.4275 18.5594 31.1606 18.5594C30.9134 18.5594 30.685 18.5399 30.4795 18.5016L29.8992 18.3928C29.6627 18.3484 29.4169 18.3263 29.171 18.3263C27.3748 18.3263 25.6484 19.528 25.0654 21.1845L24.8693 21.7414C24.4354 22.9726 22.9751 24.4337 21.7418 24.8668L21.1856 25.063C20.2546 25.3907 19.4526 26.0726 18.9272 26.9821C18.402 27.8915 18.2139 28.9274 18.3939 29.898L18.5041 30.4777C18.7432 31.7614 18.2085 33.757 17.3595 34.7478L16.9752 35.1959C16.3331 35.9462 15.9785 36.9375 15.9785 37.9875C15.9785 39.0381 16.3331 40.0295 16.9753 40.7792L17.3596 41.2265C18.2086 42.2179 18.7434 44.213 18.5042 45.4973L18.394 46.0777C18.214 47.0476 18.4021 48.0834 18.9273 48.9929C19.4526 49.9025 20.2547 50.5836 21.1857 50.9114L21.7419 51.1075C22.9752 51.5414 24.4355 53.0016 24.8694 54.2336L25.0655 54.7911C25.6485 56.4463 27.3749 57.6486 29.1724 57.6486C29.4183 57.6486 29.6628 57.6257 29.8993 57.5814L30.4795 57.4726C30.6851 57.4349 30.9135 57.4161 31.1607 57.4161C32.4276 57.4161 33.9376 57.9213 34.749 58.6172L35.1977 59.0014C35.9474 59.6436 36.9388 59.9983 37.9894 59.9983C39.04 59.9983 40.0314 59.6436 40.7811 59.0014L41.2285 58.6172C42.0413 57.9213 43.5512 57.4161 44.8181 57.4161C45.0653 57.4161 45.2936 57.435 45.4992 57.4726L46.0782 57.5827C46.3161 57.6257 46.5605 57.6486 46.8064 57.6486C48.6039 57.6486 50.3302 56.4463 50.9133 54.7911L51.1094 54.2336C51.5434 53.0016 53.0037 51.5413 54.2356 51.1075L54.7931 50.9114C55.724 50.5836 56.526 49.9025 57.0514 48.9929C57.5768 48.0834 57.7648 47.0476 57.5835 46.0777L57.4746 45.4973C57.2355 44.213 57.7702 42.2179 58.6192 41.2279L59.0035 40.7792C59.6456 40.0295 60.0003 39.0381 60.0003 37.9875C60.0002 36.9375 59.6455 35.9462 59.0034 35.1958Z" fill="#007F9C"/>
<g id="Group 1000003366">
<g id="Group 1000003365">
<g id="Group 1000003357">
<path id="Vector_2" d="M58.0249 34.2192L57.6406 33.7719C56.7915 32.7797 56.2568 30.7847 56.496 29.5011L56.6049 28.9214C56.7876 27.9507 56.5982 26.9149 56.0728 26.0055C55.5475 25.0959 54.7454 24.4141 53.8145 24.0863L53.257 23.8902C52.0251 23.457 50.5647 21.996 50.1308 20.7641L49.9347 20.2079C49.3516 18.5513 47.6254 17.3491 45.8278 17.3491C45.5833 17.3491 45.3387 17.3719 45.101 17.4162L44.5206 17.5251C44.315 17.5633 44.0854 17.5828 43.8395 17.5828C42.5726 17.5828 41.0627 17.077 40.2499 16.3805L39.8025 15.9969C39.0528 15.3539 38.0614 15 37.0108 15C35.9602 15 34.9688 15.3539 34.2191 15.9968L33.7718 16.3811C32.959 17.077 31.449 17.5828 30.1821 17.5828C29.9349 17.5828 29.7065 17.5633 29.5009 17.5251L28.9206 17.4162C28.6842 17.3718 28.4384 17.3497 28.1925 17.3497C26.3963 17.3497 24.6699 18.5514 24.0869 20.2079L23.8908 20.7648C23.4569 21.996 21.9966 23.4571 20.7633 23.8903L20.2071 24.0864C19.2761 24.4142 18.474 25.096 17.9487 26.0055C17.4235 26.915 17.2354 27.9508 17.4154 28.9215L17.5256 29.5012C17.7647 30.7848 17.23 32.7805 16.381 33.7712L15.9967 34.2193C15.3546 34.9696 15 35.961 15 37.0109C15 38.0615 15.3546 39.0529 15.9968 39.8026L16.3811 40.25C17.2301 41.2414 17.7649 43.2364 17.5256 44.5207L17.4155 45.1011C17.2355 46.071 17.4236 47.1068 17.9488 48.0164C18.474 48.9259 19.2762 49.607 20.2072 49.9348L20.7634 50.1309C21.9967 50.5648 23.457 52.0251 23.8908 53.257L24.087 53.8145C24.67 55.4697 26.3964 56.672 28.1939 56.672C28.4397 56.672 28.6843 56.6491 28.9207 56.6048L29.501 56.496C29.7066 56.4583 29.935 56.4396 30.1822 56.4396C31.4491 56.4396 32.9591 56.9447 33.7705 57.6406L34.2192 58.0249C34.9689 58.6671 35.9603 59.0217 37.0109 59.0217C38.0614 59.0217 39.0529 58.6671 39.8026 58.0249L40.25 57.6406C41.0628 56.9447 42.5727 56.4396 43.8396 56.4396C44.0868 56.4396 44.3151 56.4584 44.5207 56.496L45.0997 56.6061C45.3375 56.6491 45.582 56.672 45.8279 56.672C47.6254 56.672 49.3516 55.4697 49.9348 53.8145L50.1309 53.257C50.5648 52.0251 52.0252 50.5647 53.257 50.1309L53.8146 49.9348C54.7455 49.607 55.5475 48.9259 56.0729 48.0164C56.5982 47.1068 56.7863 46.071 56.6049 45.1011L56.4961 44.5207C56.257 43.2364 56.7917 41.2414 57.6407 40.2513L58.0249 39.8026C58.6671 39.0529 59.0217 38.0615 59.0217 37.0109C59.0217 35.961 58.667 34.9696 58.0249 34.2192Z" fill="#59DED6"/>
</g>
<g id="Subtract">
<path d="M53.6029 33.7719L53.9872 34.2192C54.6293 34.9696 54.984 35.961 54.9841 37.0109C54.9841 38.0615 54.6294 39.0529 53.9873 39.8026L53.603 40.2513C52.754 41.2414 52.2193 43.2364 52.4584 44.5207L52.5673 45.1011C52.7486 46.071 52.5606 47.1068 52.0352 48.0164C51.5099 48.9259 50.7078 49.607 49.7769 49.9348L49.2194 50.1309C47.9875 50.5647 46.5272 52.0251 46.0932 53.257L45.8971 53.8145C45.4406 55.1104 44.2833 56.1287 42.9397 56.5097C43.2322 56.4641 43.523 56.4396 43.8019 56.4396C44.0491 56.4396 44.2775 56.4584 44.483 56.496L45.062 56.6061C45.2999 56.6491 45.5443 56.672 45.7902 56.672C47.5877 56.672 49.314 55.4697 49.8971 53.8145L50.0932 53.257C50.5272 52.0251 51.9875 50.5647 53.2194 50.1309L53.7769 49.9348C54.7078 49.607 55.5099 48.9259 56.0352 48.0164C56.5606 47.1068 56.7486 46.071 56.5673 45.1011L56.4584 44.5207C56.2193 43.2364 56.754 41.2414 57.603 40.2513L57.9873 39.8026C58.6294 39.0529 58.9841 38.0615 58.9841 37.0109C58.984 35.961 58.6293 34.9696 57.9872 34.2192L57.6029 33.7719C56.7539 32.7797 56.2191 30.7847 56.4583 29.5011L56.5672 28.9214C56.7499 27.9507 56.5605 26.9149 56.0351 26.0055C55.5099 25.0959 54.7077 24.4141 53.7768 24.0863L53.2193 23.8902C51.9874 23.457 50.527 21.996 50.0931 20.7641L49.897 20.2079C49.314 18.5513 47.5877 17.3491 45.7902 17.3491C45.5456 17.3491 45.3011 17.3719 45.0633 17.4162L44.483 17.5251C44.2774 17.5633 44.0477 17.5828 43.8018 17.5828C43.526 17.5828 43.2387 17.5589 42.9496 17.5142C44.289 17.8974 45.4417 18.9141 45.897 20.2079L46.0931 20.7641C46.527 21.996 47.9874 23.457 49.2193 23.8902L49.7768 24.0863C50.7077 24.4141 51.5099 25.0959 52.0351 26.0055C52.5605 26.9149 52.7499 27.9507 52.5672 28.9214L52.4583 29.5011C52.2191 30.7847 52.7539 32.7797 53.6029 33.7719Z" fill="#007F9C" fill-opacity="0.5"/>
<path d="M42.3077 17.382C41.4904 17.172 40.7169 16.813 40.2122 16.3805L39.7648 15.9969C39.0152 15.3539 38.0237 15 36.9732 15C36.2602 15 35.5745 15.163 34.9731 15.4687C35.258 15.6134 35.5239 15.7902 35.7648 15.9969L36.2122 16.3805C37.025 17.077 38.5349 17.5828 39.8018 17.5828C40.0477 17.5828 40.2774 17.5633 40.483 17.5251L41.0633 17.4162C41.3011 17.3719 41.5456 17.3491 41.7901 17.3491C41.9636 17.3491 42.1365 17.3602 42.3077 17.382Z" fill="#007F9C" fill-opacity="0.5"/>
<path d="M27.6346 17.383C27.4199 17.4104 27.2077 17.4544 27 17.5137C27.2118 17.4808 27.4247 17.4368 27.6346 17.383Z" fill="#007F9C" fill-opacity="0.5"/>
<path d="M42.3165 56.6379C42.1425 56.6604 41.9667 56.672 41.7902 56.672C41.5443 56.672 41.2999 56.6491 41.062 56.6061L40.483 56.496C40.2775 56.4584 40.0491 56.4396 39.8019 56.4396C38.535 56.4396 37.0251 56.9447 36.2123 57.6406L35.7649 58.0249C35.524 58.2313 35.2581 58.408 34.9732 58.5527C35.5746 58.8584 36.2603 59.0217 36.9732 59.0217C38.0238 59.0217 39.0152 58.6671 39.7649 58.0249L40.2123 57.6406C40.7188 57.2069 41.4961 56.8474 42.3165 56.6379Z" fill="#007F9C" fill-opacity="0.5"/>
<path d="M27.0067 56.5097C27.2147 56.5422 27.4236 56.5853 27.6298 56.6379C27.419 56.6107 27.2107 56.5676 27.0067 56.5097Z" fill="#007F9C" fill-opacity="0.5"/>
</g>
</g>
</g>
<g id="Group 1000003367">
<path id="Vector_3" d="M34.3994 28.6036C36.4132 27.8614 38.6151 27.802 40.6659 28.4346C42.0844 28.8721 43.3762 29.6239 44.4502 30.6242L45.4777 29.5966C46.2481 28.8262 47.5652 29.3718 47.5652 30.4613V35.337H42.6894C41.6 35.337 41.0545 34.0198 41.8248 33.2495L42.7194 32.355C41.9268 31.6341 40.981 31.0911 39.9451 30.7716C38.407 30.2972 36.7555 30.3417 35.2452 30.8984C33.7349 31.4551 32.4496 32.493 31.5873 33.8521C30.725 35.2113 30.3336 36.8163 30.4734 38.4199C30.6132 40.0234 31.2764 41.5365 32.3609 42.7259C33.4454 43.9154 34.891 44.7152 36.4748 45.0021C38.0587 45.289 39.6929 45.0471 41.1257 44.3137C42.5586 43.5803 43.7104 42.396 44.4038 40.9434C44.6948 40.334 45.4247 40.0757 46.0342 40.3666C46.6437 40.6575 46.9018 41.3875 46.6109 41.997C45.6863 43.9337 44.1506 45.5128 42.2402 46.4908C40.3296 47.4687 38.1507 47.7911 36.0389 47.4086C33.9271 47.026 31.9997 45.9597 30.5537 44.3737C29.1077 42.7878 28.2234 40.7704 28.037 38.6323C27.8506 36.4942 28.3724 34.3542 29.5222 32.542C30.6719 30.7297 32.3857 29.3459 34.3994 28.6036Z" fill="#C9C6C9"/>
<path id="Vector_4" d="M34.3994 27.6036C36.4132 26.8614 38.6151 26.802 40.6659 27.4346C42.0844 27.8721 43.3762 28.6239 44.4502 29.6242L45.4777 28.5966C46.2481 27.8262 47.5652 28.3718 47.5652 29.4613V34.337H42.6894C41.6 34.337 41.0545 33.0198 41.8248 32.2495L42.7194 31.355C41.9268 30.6341 40.981 30.0911 39.9451 29.7716C38.407 29.2972 36.7555 29.3417 35.2452 29.8984C33.7349 30.4551 32.4496 31.493 31.5873 32.8521C30.725 34.2113 30.3336 35.8163 30.4734 37.4199C30.6132 39.0234 31.2764 40.5365 32.3609 41.7259C33.4454 42.9154 34.891 43.7152 36.4748 44.0021C38.0587 44.289 39.6929 44.0471 41.1257 43.3137C42.5586 42.5803 43.7104 41.396 44.4038 39.9434C44.6948 39.334 45.4247 39.0757 46.0342 39.3666C46.6437 39.6575 46.9018 40.3875 46.6109 40.997C45.6863 42.9337 44.1506 44.5128 42.2402 45.4908C40.3296 46.4687 38.1507 46.7911 36.0389 46.4086C33.9271 46.026 31.9997 44.9597 30.5537 43.3737C29.1077 41.7878 28.2234 39.7704 28.037 37.6323C27.8506 35.4942 28.3724 33.3542 29.5222 31.542C30.6719 29.7297 32.3857 28.3459 34.3994 27.6036Z" fill="#EDE9ED"/>
<path id="Vector_5" d="M34.3994 27.6036C36.4132 26.8614 38.6151 26.802 40.6659 27.4346C42.0844 27.8721 43.3762 28.6239 44.4502 29.6242L45.4777 28.5966C46.2481 27.8262 47.5652 28.3718 47.5652 29.4613V34.337H42.6894C41.6 34.337 41.0545 33.0198 41.8248 32.2495L42.7194 31.355C41.9268 30.6341 40.981 30.0911 39.9451 29.7716C38.407 29.2972 36.7555 29.3417 35.2452 29.8984C33.7349 30.4551 32.4496 31.493 31.5873 32.8521C30.725 34.2113 30.3336 35.8163 30.4734 37.4199C30.6132 39.0234 31.2764 40.5365 32.3609 41.7259C33.4454 42.9154 34.891 43.7152 36.4748 44.0021C38.0587 44.289 39.6929 44.0471 41.1257 43.3137C42.5586 42.5803 43.7104 41.396 44.4038 39.9434C44.6948 39.334 45.4247 39.0757 46.0342 39.3666C46.6437 39.6575 46.9018 40.3875 46.6109 40.997C45.6863 42.9337 44.1506 44.5128 42.2402 45.4908C40.3296 46.4687 38.1507 46.7911 36.0389 46.4086C33.9271 46.026 31.9997 44.9597 30.5537 43.3737C29.1077 41.7878 28.2234 39.7704 28.037 37.6323C27.8506 35.4942 28.3724 33.3542 29.5222 31.542C30.6719 29.7297 32.3857 28.3459 34.3994 27.6036Z" fill="#EDE9ED"/>
</g>
</g>
</g>
</g>
</svg>
