<svg width="75" height="74" viewBox="0 0 75 74" fill="none" xmlns="http://www.w3.org/2000/svg">
<g id="Frame 1000003134">
<g id="Group 1000003214">
<rect id="Rectangle 4842" x="0.5" y="0.5" width="74" height="73" rx="9.5" fill="#FCFCFD" stroke="#E2E9FF"/>
<path id="Rectangle 4843" d="M1 20H4C33.2711 20 57 43.7289 57 73H10C5.02944 73 1 68.9706 1 64V20Z" fill="#EEF2FF"/>
</g>
<g id="Group 1000003357">
<g id="Group 1000003362">
<path id="Vector" d="M54.8208 21.7762C58.0552 25.4996 60 30.2827 60 35.4999C60 47.3741 49.9264 57 37.5 57C25.0736 57 15 47.3741 15 35.4999C15 23.6257 25.0737 14 37.5001 14C42.8172 14 47.7035 15.7623 51.5543 18.7092" fill="#FFE3D8"/>
<path id="Subtract" fill-rule="evenodd" clip-rule="evenodd" d="M57 35.4999C57 30.2827 55.0552 25.4996 51.8207 21.7762L48.5543 18.7092C45.1917 16.1358 41.0394 14.4658 36.5002 14.0838C37.1591 14.0283 37.8261 14 38.5001 14C43.8172 14 48.7035 15.7623 52.5543 18.7092L55.8207 21.7762C59.0552 25.4996 61 30.2827 61 35.4999C61 47.3741 50.9264 57 38.5 57C37.826 57 37.1589 56.9717 36.5 56.9162C47.9896 55.9492 57 46.7301 57 35.4999Z" fill="#FF846D" fill-opacity="0.75"/>
<g id="Group 1000003272">
<path id="Vector_2" d="M36.0258 43.4219H38.7363V46.3868H36.0258V43.4219Z" fill="#4D4C78"/>
<path id="Vector_3" d="M41.3949 27.7031H51.0625C51.2485 27.7031 51.4268 27.777 51.5583 27.9085C51.6898 28.04 51.7637 28.2183 51.7637 28.4043V45.6805C51.7639 45.7727 51.7459 45.8641 51.7108 45.9493C51.6756 46.0346 51.624 46.1121 51.5589 46.1774C51.4938 46.2427 51.4164 46.2945 51.3312 46.3298C51.246 46.3651 51.1547 46.3833 51.0625 46.3833H38.7372V44.7088C38.7372 44.6807 38.7388 44.6526 38.7421 44.6247L40.6988 28.3218C40.7189 28.1513 40.801 27.9942 40.9293 27.8802C41.0576 27.7661 41.2233 27.7031 41.3949 27.7031Z" fill="#5FB9F0"/>
<path id="Vector_4" d="M32.5332 28.2591L36.0108 44.595C36.0213 44.6427 36.0268 44.6913 36.0273 44.7402V46.3833H23.702C23.6098 46.3833 23.5185 46.3651 23.4333 46.3298C23.3481 46.2945 23.2708 46.2427 23.2056 46.1774C23.1405 46.1121 23.0889 46.0346 23.0538 45.9493C23.0186 45.8641 23.0006 45.7727 23.0009 45.6805V28.4043C23.0009 28.2183 23.0747 28.04 23.2062 27.9085C23.3377 27.777 23.5161 27.7031 23.702 27.7031H31.8469C32.0077 27.7027 32.1638 27.7578 32.2889 27.8591C32.4139 27.9604 32.5001 28.1016 32.5332 28.2591Z" fill="#5FB9F0"/>
<path id="Vector_5" d="M32.418 27.7031L36.0294 44.6659V43.4187H38.7383V44.6659L40.7741 27.7031H50.5703V45.9197L49.8642 45.6294C46.0381 44.055 41.7535 44.0101 37.8952 45.504L37.3838 45.7102L36.8724 45.504C33.0141 44.0101 28.7295 44.055 24.9034 45.6294L24.1973 45.9197V27.7031H32.418Z" fill="#56A6D8"/>
<path id="Vector_6" d="M37.3816 45.1546C41.4417 43.4851 45.9965 43.4851 50.0566 45.1546V26.2534C45.9969 24.5822 41.4413 24.5822 37.3816 26.2534V45.1546Z" fill="#F9F6F9"/>
<g id="Group 1000003275">
<g id="Group 1000003273">
<path id="Vector_7" d="M43.9506 42.9033L46.8762 42.8274L46.931 45.9337L44.7629 47.4791L44.04 47.9817L43.9506 42.9033Z" fill="#E87762"/>
<path id="Vector_8" d="M44.9612 45.9797C45.2511 46.1481 45.5865 46.2358 45.9282 46.2269C46.17 46.2206 46.4043 46.1682 46.6248 46.0712C46.7158 46.0312 46.8038 45.9834 46.8876 45.9289C46.9024 45.9309 46.9172 45.9325 46.932 45.9342L46.9668 47.9061L45.4869 46.9768L44.7641 47.4794L44.7381 46.0082C44.8128 46.0033 44.8873 45.9939 44.9612 45.9797Z" fill="#FF846D" fill-opacity="0.75"/>
</g>
</g>
<path id="Vector_9" d="M37.3828 45.1546C33.3227 43.4851 28.7678 43.4851 24.7077 45.1546V26.2534C28.7675 24.5822 33.323 24.5822 37.3828 26.2534V45.1546Z" fill="#F9F6F9"/>
<path id="Vector_10" d="M49.0008 27.1973V25.8594C49.3555 25.9782 49.7085 26.1085 50.0566 26.252V45.1533C45.9703 43.6222 41.4679 43.6222 37.3816 45.1533V43.1521L37.4954 43.1142C44.3699 40.8689 49.0008 34.4282 49.0008 27.1973Z" fill="#D8D2D8"/>
<path id="Vector_11" d="M36.327 27.1973V25.8594C36.6833 25.9782 37.0353 26.109 37.3828 26.252V45.1533C33.2965 43.6222 28.7941 43.6222 24.7077 45.1533V43.1521L24.8216 43.1142C31.6978 40.8689 36.327 34.4282 36.327 27.1973Z" fill="#D8D2D8"/>
<path id="Vector_12" d="M47.9696 30.096C48.0473 30.0963 48.1226 30.0691 48.1822 30.0194C48.2419 29.9696 48.2821 29.9003 48.2957 29.8238C48.3093 29.7473 48.2955 29.6684 48.2566 29.6011C48.2178 29.5338 48.1564 29.4824 48.0834 29.4559C45.3313 28.4418 42.3079 28.4418 39.5558 29.4559C39.5151 29.4708 39.4777 29.4936 39.4458 29.523C39.4139 29.5524 39.3881 29.5878 39.3698 29.6272C39.3516 29.6666 39.3413 29.7092 39.3395 29.7525C39.3378 29.7959 39.3445 29.8391 39.3595 29.8799C39.3744 29.9206 39.3973 29.958 39.4267 29.9899C39.456 30.0218 39.4914 30.0476 39.5308 30.0658C39.5702 30.0841 39.6128 30.0944 39.6561 30.0961C39.6995 30.0979 39.7427 30.0911 39.7835 30.0762C42.3884 29.115 45.2508 29.115 47.8557 30.0762C47.8923 30.0891 47.9308 30.0958 47.9696 30.096Z" fill="#D8D2D8"/>
<path id="Vector_13" d="M47.9696 33.5898C48.0473 33.5901 48.1226 33.563 48.1822 33.5132C48.2419 33.4634 48.2821 33.3941 48.2957 33.3176C48.3093 33.2411 48.2955 33.1623 48.2566 33.095C48.2178 33.0276 48.1564 32.9762 48.0834 32.9497C45.3317 31.9334 42.3075 31.9334 39.5558 32.9497C39.5133 32.9632 39.474 32.9851 39.4402 33.0142C39.4064 33.0433 39.3789 33.079 39.3592 33.119C39.3396 33.1591 39.3283 33.2027 39.326 33.2472C39.3237 33.2918 39.3305 33.3363 39.3459 33.3782C39.3613 33.42 39.385 33.4583 39.4156 33.4907C39.4463 33.5231 39.4831 33.549 39.524 33.5668C39.5649 33.5846 39.609 33.5939 39.6536 33.5942C39.6982 33.5944 39.7424 33.5856 39.7835 33.5684C42.3884 32.6071 45.2508 32.6071 47.8557 33.5684C47.892 33.5826 47.9306 33.5899 47.9696 33.5898Z" fill="#D8D2D8"/>
<path id="Vector_14" d="M47.9681 37.0881C48.045 37.0874 48.1193 37.0598 48.178 37.0102C48.2368 36.9605 48.2763 36.8919 48.2898 36.8161C48.3033 36.7404 48.2899 36.6623 48.252 36.5954C48.214 36.5285 48.1539 36.477 48.0819 36.4497C45.3302 35.4334 42.3061 35.4334 39.5544 36.4497C39.5118 36.4632 39.4725 36.4851 39.4387 36.5142C39.405 36.5433 39.3774 36.579 39.3578 36.619C39.3382 36.6591 39.3269 36.7027 39.3246 36.7472C39.3223 36.7918 39.3291 36.8363 39.3445 36.8782C39.3599 36.92 39.3836 36.9583 39.4142 36.9907C39.4448 37.0231 39.4817 37.049 39.5226 37.0668C39.5635 37.0846 39.6075 37.0939 39.6521 37.0942C39.6967 37.0944 39.7409 37.0856 39.782 37.0684C42.3869 36.1071 45.2494 36.1071 47.8543 37.0684C47.8908 37.0813 47.9293 37.088 47.9681 37.0881Z" fill="#D8D2D8"/>
<path id="Vector_15" d="M47.9696 40.5882C48.0473 40.5885 48.1226 40.5613 48.1822 40.5115C48.2419 40.4617 48.2821 40.3925 48.2957 40.316C48.3093 40.2395 48.2955 40.1606 48.2566 40.0933C48.2178 40.026 48.1564 39.9746 48.0834 39.9481C45.3313 38.934 42.3079 38.934 39.5558 39.9481C39.5151 39.963 39.4777 39.9858 39.4458 40.0152C39.4139 40.0446 39.3881 40.08 39.3698 40.1194C39.3516 40.1588 39.3413 40.2013 39.3395 40.2447C39.3378 40.288 39.3445 40.3313 39.3595 40.372C39.3744 40.4128 39.3973 40.4502 39.4267 40.4821C39.456 40.514 39.4914 40.5398 39.5308 40.558C39.5702 40.5763 39.6128 40.5865 39.6561 40.5883C39.6995 40.5901 39.7427 40.5833 39.7835 40.5684C42.3884 39.6072 45.2508 39.6072 47.8557 40.5684C47.8923 40.5813 47.9308 40.588 47.9696 40.5882Z" fill="#D8D2D8"/>
<path id="Vector_16" d="M26.9947 30.096C27.0335 30.0958 27.072 30.0891 27.1085 30.0762C29.7134 29.115 32.5759 29.115 35.1808 30.0762C35.263 30.1064 35.3539 30.1027 35.4334 30.0658C35.5129 30.029 35.5746 29.9621 35.6048 29.8799C35.635 29.7976 35.6312 29.7067 35.5944 29.6272C35.5576 29.5477 35.4907 29.4861 35.4085 29.4559C32.6564 28.4418 29.6329 28.4418 26.8809 29.4559C26.8078 29.4824 26.7465 29.5338 26.7076 29.6011C26.6688 29.6684 26.655 29.7473 26.6686 29.8238C26.6822 29.9003 26.7223 29.9696 26.782 30.0194C26.8417 30.0691 26.917 30.0963 26.9947 30.096Z" fill="#D8D2D8"/>
<path id="Vector_17" d="M26.9947 33.5898C27.0337 33.5899 27.0723 33.5826 27.1085 33.5684C29.7135 32.6071 32.5759 32.6071 35.1808 33.5684C35.2219 33.5856 35.2661 33.5944 35.3107 33.5942C35.3553 33.5939 35.3994 33.5846 35.4403 33.5668C35.4811 33.549 35.518 33.5231 35.5486 33.4907C35.5792 33.4583 35.603 33.42 35.6184 33.3782C35.6338 33.3363 35.6405 33.2918 35.6382 33.2472C35.6359 33.2027 35.6246 33.1591 35.605 33.119C35.5854 33.079 35.5579 33.0433 35.5241 33.0142C35.4903 32.9851 35.451 32.9632 35.4085 32.9497C32.6568 31.9334 29.6326 31.9334 26.8809 32.9497C26.8078 32.9762 26.7465 33.0276 26.7077 33.095C26.6688 33.1623 26.655 33.2411 26.6686 33.3176C26.6822 33.3941 26.7224 33.4634 26.782 33.5132C26.8417 33.563 26.917 33.5901 26.9947 33.5898Z" fill="#D8D2D8"/>
<path id="Vector_18" d="M26.9947 37.0881C27.0335 37.088 27.072 37.0813 27.1085 37.0684C29.7135 36.1071 32.5759 36.1071 35.1808 37.0684C35.2219 37.0856 35.2661 37.0944 35.3107 37.0942C35.3553 37.0939 35.3994 37.0846 35.4403 37.0668C35.4811 37.049 35.518 37.0231 35.5486 36.9907C35.5792 36.9583 35.603 36.92 35.6184 36.8782C35.6338 36.8363 35.6405 36.7918 35.6382 36.7472C35.6359 36.7027 35.6246 36.6591 35.605 36.619C35.5854 36.579 35.5579 36.5433 35.5241 36.5142C35.4903 36.4851 35.451 36.4632 35.4085 36.4497C32.6568 35.4334 29.6326 35.4334 26.8809 36.4497C26.809 36.477 26.7488 36.5285 26.7109 36.5954C26.6729 36.6623 26.6595 36.7404 26.673 36.8161C26.6865 36.8919 26.7261 36.9605 26.7848 37.0102C26.8435 37.0598 26.9178 37.0874 26.9947 37.0881Z" fill="#D8D2D8"/>
<path id="Vector_19" d="M26.9947 40.5882C27.0335 40.588 27.072 40.5813 27.1085 40.5684C29.7134 39.6072 32.5759 39.6072 35.1808 40.5684C35.263 40.5986 35.3539 40.5948 35.4334 40.558C35.5129 40.5212 35.5746 40.4543 35.6048 40.372C35.635 40.2898 35.6312 40.1989 35.5944 40.1194C35.5576 40.0399 35.4907 39.9783 35.4085 39.9481C32.6564 38.934 29.6329 38.934 26.8809 39.9481C26.8078 39.9746 26.7465 40.026 26.7076 40.0933C26.6688 40.1606 26.655 40.2395 26.6686 40.316C26.6822 40.3925 26.7223 40.4617 26.782 40.5115C26.8417 40.5613 26.917 40.5885 26.9947 40.5882Z" fill="#D8D2D8"/>
<path id="Vector_20" d="M26.8131 29.8225C26.8518 29.8224 26.8903 29.8157 26.9269 29.8027C29.5318 28.8415 32.3942 28.8415 34.9991 29.8027C35.0814 29.8329 35.1723 29.8292 35.2518 29.7924C35.3313 29.7556 35.3929 29.6887 35.4231 29.6064C35.4533 29.5242 35.4496 29.4333 35.4128 29.3538C35.376 29.2743 35.3091 29.2126 35.2268 29.1824C32.4747 28.1684 29.4513 28.1684 26.6992 29.1824C26.6262 29.2089 26.5648 29.2604 26.526 29.3277C26.4872 29.395 26.4733 29.4739 26.4869 29.5504C26.5005 29.6269 26.5407 29.6961 26.6004 29.7459C26.66 29.7957 26.7353 29.8228 26.8131 29.8225Z" fill="#F9F6F9"/>
<path id="Vector_21" d="M26.8131 33.3085C26.852 33.3087 26.8907 33.3014 26.9269 33.2871C29.5318 32.3259 32.3943 32.3259 34.9992 33.2871C35.0403 33.3044 35.0845 33.3132 35.129 33.3129C35.1736 33.3126 35.2177 33.3033 35.2586 33.2856C35.2995 33.2678 35.3364 33.2419 35.367 33.2095C35.3976 33.177 35.4213 33.1388 35.4367 33.0969C35.4521 33.0551 35.4589 33.0105 35.4566 32.966C35.4543 32.9215 35.443 32.8778 35.4234 32.8378C35.4038 32.7978 35.3762 32.7621 35.3425 32.733C35.3087 32.7039 35.2693 32.6819 35.2268 32.6684C32.4751 31.6522 29.4509 31.6522 26.6992 32.6684C26.6262 32.695 26.5648 32.7464 26.526 32.8137C26.4872 32.881 26.4733 32.9599 26.4869 33.0364C26.5006 33.1129 26.5407 33.1821 26.6004 33.2319C26.66 33.2817 26.7354 33.3088 26.8131 33.3085Z" fill="#F9F6F9"/>
<path id="Vector_22" d="M26.8131 36.8069C26.8519 36.8067 26.8903 36.8001 26.9269 36.7871C29.5318 35.8259 32.3943 35.8259 34.9992 36.7871C35.0403 36.8044 35.0845 36.8132 35.129 36.8129C35.1736 36.8126 35.2177 36.8033 35.2586 36.7856C35.2995 36.7678 35.3364 36.7419 35.367 36.7095C35.3976 36.677 35.4213 36.6388 35.4367 36.5969C35.4521 36.5551 35.4589 36.5105 35.4566 36.466C35.4543 36.4215 35.443 36.3778 35.4234 36.3378C35.4038 36.2978 35.3762 36.2621 35.3425 36.233C35.3087 36.2039 35.2693 36.1819 35.2268 36.1684C32.4751 35.1522 29.4509 35.1522 26.6992 36.1684C26.6273 36.1957 26.5672 36.2473 26.5292 36.3142C26.4913 36.3811 26.4779 36.4591 26.4914 36.5349C26.5049 36.6106 26.5444 36.6792 26.6032 36.7289C26.6619 36.7786 26.7362 36.8062 26.8131 36.8069Z" fill="#F9F6F9"/>
<path id="Vector_23" d="M26.8131 40.3069C26.8518 40.3068 26.8903 40.3001 26.9269 40.2871C29.5318 39.3259 32.3942 39.3259 34.9991 40.2871C35.0399 40.3021 35.0831 40.3088 35.1265 40.3071C35.1698 40.3053 35.2124 40.295 35.2518 40.2768C35.2912 40.2585 35.3266 40.2327 35.356 40.2008C35.3854 40.1689 35.4082 40.1315 35.4231 40.0908C35.4381 40.0501 35.4449 40.0068 35.4431 39.9634C35.4413 39.9201 35.431 39.8775 35.4128 39.8381C35.3945 39.7988 35.3687 39.7634 35.3368 39.734C35.3049 39.7046 35.2675 39.6818 35.2268 39.6668C32.4747 38.6527 29.4513 38.6527 26.6992 39.6668C26.6262 39.6933 26.5648 39.7448 26.526 39.8121C26.4872 39.8794 26.4733 39.9582 26.4869 40.0347C26.5005 40.1112 26.5407 40.1805 26.6004 40.2303C26.66 40.2801 26.7353 40.3072 26.8131 40.3069Z" fill="#F9F6F9"/>
<path id="Vector_24" d="M47.7879 29.8225C47.8656 29.8228 47.9409 29.7957 48.0006 29.7459C48.0603 29.6961 48.1004 29.6269 48.114 29.5504C48.1276 29.4739 48.1138 29.395 48.075 29.3277C48.0361 29.2604 47.9748 29.2089 47.9018 29.1824C45.1497 28.1684 42.1262 28.1684 39.3742 29.1824C39.3334 29.1974 39.296 29.2202 39.2641 29.2496C39.2322 29.279 39.2064 29.3144 39.1882 29.3538C39.17 29.3931 39.1597 29.4357 39.1579 29.4791C39.1561 29.5224 39.1629 29.5657 39.1778 29.6064C39.1928 29.6472 39.2156 29.6845 39.245 29.7165C39.2744 29.7484 39.3098 29.7742 39.3492 29.7924C39.3885 29.8106 39.4311 29.8209 39.4745 29.8227C39.5178 29.8245 39.5611 29.8177 39.6018 29.8027C42.2067 28.8415 45.0692 28.8415 47.6741 29.8027C47.7106 29.8157 47.7491 29.8224 47.7879 29.8225Z" fill="#F9F6F9"/>
<path id="Vector_25" d="M47.7879 33.3085C47.8656 33.3088 47.9409 33.2817 48.0006 33.2319C48.0603 33.1821 48.1004 33.1129 48.114 33.0364C48.1276 32.9599 48.1138 32.881 48.075 32.8137C48.0361 32.7464 47.9748 32.695 47.9018 32.6684C45.1501 31.6522 42.1259 31.6522 39.3742 32.6684C39.3317 32.6819 39.2923 32.7039 39.2585 32.733C39.2248 32.7621 39.1972 32.7978 39.1776 32.8378C39.158 32.8778 39.1467 32.9215 39.1444 32.966C39.1421 33.0105 39.1489 33.0551 39.1643 33.0969C39.1797 33.1388 39.2034 33.177 39.234 33.2095C39.2646 33.2419 39.3015 33.2678 39.3424 33.2856C39.3833 33.3033 39.4274 33.3126 39.4719 33.3129C39.5165 33.3132 39.5607 33.3044 39.6018 33.2871C42.2067 32.3259 45.0692 32.3259 47.6741 33.2871C47.7103 33.3014 47.749 33.3087 47.7879 33.3085Z" fill="#F9F6F9"/>
<path id="Vector_26" d="M47.7884 36.8069C47.8653 36.8062 47.9396 36.7786 47.9983 36.7289C48.0571 36.6792 48.0966 36.6106 48.1101 36.5349C48.1236 36.4591 48.1102 36.3811 48.0723 36.3142C48.0343 36.2473 47.9742 36.1957 47.9023 36.1684C45.1506 35.1522 42.1264 35.1522 39.3747 36.1684C39.3322 36.1819 39.2928 36.2039 39.259 36.233C39.2253 36.2621 39.1977 36.2978 39.1781 36.3378C39.1585 36.3778 39.1472 36.4215 39.1449 36.466C39.1426 36.5105 39.1494 36.5551 39.1648 36.5969C39.1802 36.6388 39.2039 36.677 39.2345 36.7095C39.2651 36.7419 39.302 36.7678 39.3429 36.7856C39.3838 36.8033 39.4279 36.8126 39.4725 36.8129C39.517 36.8132 39.5612 36.8044 39.6023 36.7871C42.2072 35.8259 45.0697 35.8259 47.6746 36.7871C47.7112 36.8001 47.7496 36.8067 47.7884 36.8069Z" fill="#F9F6F9"/>
<path id="Vector_27" d="M47.7879 40.3069C47.8656 40.3072 47.9409 40.2801 48.0006 40.2303C48.0603 40.1805 48.1004 40.1112 48.114 40.0347C48.1276 39.9582 48.1138 39.8794 48.075 39.8121C48.0361 39.7448 47.9748 39.6933 47.9018 39.6668C45.1497 38.6527 42.1262 38.6527 39.3742 39.6668C39.3334 39.6818 39.296 39.7046 39.2641 39.734C39.2322 39.7634 39.2064 39.7988 39.1882 39.8381C39.17 39.8775 39.1597 39.9201 39.1579 39.9634C39.1561 40.0068 39.1629 40.0501 39.1778 40.0908C39.1928 40.1315 39.2156 40.1689 39.245 40.2008C39.2744 40.2327 39.3098 40.2585 39.3492 40.2768C39.3885 40.295 39.4311 40.3053 39.4745 40.3071C39.5178 40.3088 39.5611 40.3021 39.6018 40.2871C42.2067 39.3259 45.0692 39.3259 47.6741 40.2871C47.7106 40.3001 47.7491 40.3068 47.7879 40.3069Z" fill="#F9F6F9"/>
</g>
</g>
</g>
</g>
</svg>
