<svg width="75" height="74" viewBox="0 0 75 74" fill="none" xmlns="http://www.w3.org/2000/svg">
<g id="Frame 1000003134">
<g id="Group 1000003214">
<rect id="Rectangle 4842" x="0.5" y="0.5" width="74" height="73" rx="9.5" fill="#FCFCFD" stroke="#E2E9FF"/>
<path id="Rectangle 4843" d="M74 54H71C41.7289 54 18 30.2711 18 1H65C69.9706 1 74 5.02944 74 10V54Z" fill="#EEF2FF"/>
<g id="Group 1000003261">
<g id="Group 1000003258">
<g id="Group 1000003274">
<g id="Group 1000003273">
<path id="Vector" d="M46.9279 41.6406L36.7305 45.8151L41.2519 56.6031L51.0664 58.6411L54.3197 59.2771L46.9279 41.6406Z" fill="#E87762"/>
<path id="Vector_2" d="M48.1128 53.7712C47.369 54.7912 46.3463 55.6016 45.1551 56.0892C44.3125 56.4341 43.4256 56.6089 42.5184 56.6089C42.1442 56.6089 41.7686 56.5778 41.3973 56.517C41.3493 56.5463 41.3006 56.5743 41.252 56.6025L44.1222 63.451L47.8129 58.0044L51.0662 58.6405L48.9248 53.5312C48.66 53.6272 48.3891 53.708 48.1128 53.7712Z" fill="#FF846D"/>
</g>
</g>
<path id="Vector_3" d="M38.7967 45.8151L28.5993 41.6406L24.2285 52.0691L29.5595 60.7283L31.4049 63.4516L38.7967 45.8151Z" fill="#E87762"/>
<path id="Vector_4" d="M30.3718 56.0911C29.1804 55.6034 28.1576 54.793 27.4139 53.773C26.2249 53.5011 25.13 52.9195 24.2281 52.0703L21.207 59.2784L27.7137 58.0063L29.5591 60.7296L31.3679 56.414C31.0301 56.3316 30.6975 56.2245 30.3718 56.0911Z" fill="#FF846D"/>
</g>
<g id="Group 1000003362">
<path id="Vector_5" d="M54.8208 22.7762C58.0552 26.4996 60 31.2827 60 36.4999C60 48.3741 49.9264 58 37.5 58C25.0736 58 15 48.3741 15 36.4999C15 24.6257 25.0737 15 37.5001 15C42.8172 15 47.7035 16.7623 51.5543 19.7092" fill="#FFE3A8"/>
<path id="Subtract" fill-rule="evenodd" clip-rule="evenodd" d="M57 36.4999C57 31.2827 55.0552 26.4996 51.8207 22.7762L48.5543 19.7092C45.1917 17.1358 41.0394 15.4658 36.5002 15.0838C37.1591 15.0283 37.8261 15 38.5001 15C43.8172 15 48.7035 16.7623 52.5543 19.7092L55.8207 22.7762C59.0552 26.4996 61 31.2827 61 36.4999C61 48.3741 50.9264 58 38.5 58C37.826 58 37.1589 57.9717 36.5 57.9162C47.9896 56.9492 57 47.7301 57 36.4999Z" fill="#FFD782"/>
<g id="Group 1000003363">
<g id="Group 1000003362_2">
<path id="Star 11" d="M36.6149 25.4608C37.0617 24.4922 38.4383 24.4922 38.8851 25.4608L41.3363 30.7751C41.5184 31.1699 41.8925 31.4417 42.3242 31.4929L48.1359 32.1819C49.1951 32.3075 49.6205 33.6168 48.8374 34.341L44.5407 38.3145C44.2215 38.6096 44.0786 39.0494 44.1633 39.4758L45.3039 45.216C45.5118 46.2622 44.3981 47.0713 43.4673 46.5503L38.3606 43.6918C37.9812 43.4794 37.5188 43.4794 37.1394 43.6918L32.0327 46.5503C31.1019 47.0713 29.9882 46.2622 30.1961 45.216L31.3367 39.4758C31.4214 39.0494 31.2785 38.6096 30.9593 38.3145L26.6626 34.341C25.8795 33.6168 26.3049 32.3075 27.3641 32.1819L33.1758 31.4929C33.6075 31.4417 33.9816 31.1699 34.1637 30.7751L36.6149 25.4608Z" fill="#FF846D"/>
</g>
<path id="Subtract_2" d="M43.0095 46.294L43.4673 46.5503C44.3981 47.0713 45.5118 46.2621 45.3039 45.2159L44.1633 39.4758C44.0786 39.0494 44.2215 38.6096 44.5407 38.3144L48.8374 34.341C49.6205 33.6167 49.1951 32.3075 48.1359 32.1819L42.3242 31.4929C41.8925 31.4417 41.5184 31.1699 41.3363 30.7751L38.8851 25.4608C38.4768 24.5757 37.2921 24.4994 36.75 25.2319C36.8011 25.301 36.8466 25.3773 36.8851 25.4608L39.3363 30.7751C39.5184 31.1699 39.8925 32.2597 40.3242 32.3109L46.1359 33C47.1951 33.1256 47.6205 33.6167 46.8374 34.341L42.5407 38.3144C42.2215 38.6096 42.0786 39.0494 42.1633 39.4758L43.3039 45.2159C43.3877 45.6377 43.2567 46.0209 43.0095 46.294Z" fill="#E87762"/>
</g>
</g>
</g>
</g>
</g>
</svg>
