<svg width="24" height="24" viewBox="0 0 24 24" fill="none" xmlns="http://www.w3.org/2000/svg">
<path d="M4.80078 8.4L14.4008 8.4M14.4008 8.4C14.4008 9.72548 15.4753 10.8 16.8008 10.8C18.1263 10.8 19.2008 9.72548 19.2008 8.4C19.2008 7.07452 18.1263 6 16.8008 6C15.4753 6 14.4008 7.07452 14.4008 8.4ZM9.60078 14.8L19.2008 14.8M9.60078 14.8C9.60078 16.1255 8.52626 17.2 7.20078 17.2C5.8753 17.2 4.80078 16.1255 4.80078 14.8C4.80078 13.4745 5.8753 12.4 7.20078 12.4C8.52626 12.4 9.60078 13.4745 9.60078 14.8Z" stroke="#1439BB" stroke-width="1.8" stroke-linecap="round" stroke-linejoin="round"/>
</svg>
